<svg width="100" height="100" xmlns="http://www.w3.org/2000/svg"><path d="M5.023.707.707 5.023v2.829L7.852.707Zm7.141 0L.707 12.164v2.828L14.992.707Zm7.145 0L.707 19.309v2.828L22.137.707Zm7.14 0L.707 26.449v2.828L29.277.707Zm7.145 0L.707 33.594v2.828L36.422.707Zm7.14 0L.707 40.734v2.828L43.562.708Zm7.145 0L.707 47.879v2.828l50-50Zm7.144 0L.707 55.023v2.829L57.852.707Zm7.141 0L.707 62.164v2.828L64.992.707Zm7.145 0L.707 69.309v2.828L72.137.707Zm7.14 0L.707 76.449v2.828L79.277.707Zm7.145 0L.707 83.594v2.828L86.422.707Zm7.14 0L.707 90.734v2.829L93.563.707Zm7.145 0L.707 97.879v2.828l100-100Zm2.828 4.316L5.023 100.707h2.829l92.855-92.855Zm0 7.141-88.543 88.543h2.828l85.715-85.715Zm0 7.145-81.398 81.398h2.828l78.57-78.57Zm0 7.14-74.258 74.258h2.828l71.43-71.43Zm0 7.145-67.113 67.113h2.828l64.285-64.285Zm0 7.14-59.973 59.973h2.828l57.145-57.144Zm0 7.145-52.828 52.828h2.828l50-50Zm0 7.144-45.684 45.684h2.829l42.855-42.855Zm0 7.141-38.543 38.543h2.828l35.715-35.715Zm0 7.145-31.398 31.398h2.828l28.57-28.57Zm0 7.14-24.258 24.258h2.828l21.43-21.43Zm0 7.145-17.113 17.113h2.828l14.285-14.285Zm0 7.14-9.973 9.973h2.829l7.144-7.144zm0 7.145-2.828 2.828h2.828z"/></svg>