<svg width="100" height="100" xmlns="http://www.w3.org/2000/svg"><path d="M 4.316,0 0,4.316 V 7.145 L 7.145,0 Z M 11.457,0 0,11.457 v 2.828 L 14.285,0 Z M 18.602,0 0,18.602 V 21.43 L 21.43,0 Z M 25.742,0 0,25.742 V 28.57 L 28.57,0 Z M 32.887,0 0,32.887 v 2.828 L 35.715,0 Z M 40.027,0 0,40.027 v 2.828 L 42.855,10e-4 Z M 47.172,0 0,47.172 V 50 L 50,0 Z M 54.316,0 0,54.316 v 2.829 L 57.145,0 Z M 61.457,0 0,61.457 v 2.828 L 64.285,0 Z M 68.602,0 0,68.602 V 71.43 L 71.43,0 Z M 75.742,0 0,75.742 V 78.57 L 78.57,0 Z M 82.887,0 0,82.887 v 2.828 L 85.715,0 Z M 90.027,0 0,90.027 v 2.829 L 92.856,0 Z M 97.172,0 0,97.172 V 100 L 100,0 Z M 100,4.316 4.316,100 H 7.145 L 100,7.145 Z m 0,7.141 L 11.457,100 h 2.828 L 100,14.285 Z m 0,7.145 L 18.602,100 H 21.43 L 100,21.43 Z m 0,7.14 L 25.742,100 H 28.57 L 100,28.57 Z m 0,7.145 L 32.887,100 h 2.828 L 100,35.715 Z m 0,7.14 L 40.027,100 h 2.828 L 100,42.856 Z m 0,7.145 L 47.172,100 H 50 l 50,-50 z m 0,7.144 L 54.316,100 h 2.829 L 100,57.145 Z m 0,7.141 L 61.457,100 h 2.828 L 100,64.285 Z m 0,7.145 L 68.602,100 H 71.43 L 100,71.43 Z m 0,7.14 L 75.742,100 H 78.57 L 100,78.57 Z m 0,7.145 L 82.887,100 h 2.828 L 100,85.715 Z m 0,7.14 -9.973,9.973 h 2.829 L 100,92.856 Z m 0,7.145 L 97.172,100 H 100 Z"/></svg>
