<svg width="100" height="100" xmlns="http://www.w3.org/2000/svg"><path d="M0 0v1.414L1.414 0Zm6.918 0L0 6.918v2.828L9.746 0Zm8.336 0L0 15.254v2.828L18.082 0Zm8.332 0L0 23.586v2.828L26.414 0Zm8.332 0L0 31.918v2.828L34.746 0Zm8.336 0L0 40.254v2.828L43.082 0Zm8.332 0L0 48.586v2.828L51.414 0Zm8.332 0L0 56.918v2.828L59.746 0Zm8.336 0L0 65.254v2.828L68.082 0Zm8.332 0L0 73.586v2.828L76.414 0Zm8.332 0L0 81.918v2.828L84.746 0Zm8.336 0L0 90.254v2.828L93.082 0Zm8.332 0L0 98.586V100h1.414L100 1.414V0ZM100 6.918 6.918 100h2.828L100 9.746Zm0 8.336L15.254 100h2.828L100 18.082Zm0 8.332L23.586 100h2.828L100 26.414Zm0 8.332L31.918 100h2.828L100 34.746Zm0 8.336L40.254 100h2.828L100 43.082zm0 8.332L48.586 100h2.828L100 51.414Zm0 8.332L56.918 100h2.828L100 59.746Zm0 8.336L65.254 100h2.828L100 68.082zm0 8.332L73.586 100h2.828L100 76.414Zm0 8.332L81.918 100h2.828L100 84.746Zm0 8.336L90.254 100h2.828L100 93.082zm0 8.332L98.586 100H100Z"/></svg>