<svg width="100" height="100" xmlns="http://www.w3.org/2000/svg"><path d="M0 0v1.414L1.414 0Zm9.695 0L0 9.695v2.828L12.523 0ZM20.81 0 0 20.809v2.828L23.637 0Zm11.109 0L0 31.918v2.828L34.746 0Zm11.113 0L0 43.031v2.828L45.86 0Zm11.11 0L0 54.14v2.829L56.969 0Zm11.113 0L0 65.254v2.828L68.082 0Zm11.11 0L0 76.363v2.828L79.191 0Zm11.113 0L0 87.477v2.828L90.305 0Zm11.109 0L0 98.586V100h1.414L100 1.414V0ZM100 9.695 9.695 100h2.828L100 12.523Zm0 11.114L20.809 100h2.828L100 23.637Zm0 11.109L31.918 100h2.828L100 34.746Zm0 11.113L43.031 100h2.828L100 45.86Zm0 11.11L54.14 100h2.829L100 56.969Zm0 11.113L65.254 100h2.828L100 68.082Zm0 11.11L76.363 100h2.828L100 79.191Zm0 11.113L87.477 100h2.828L100 90.305Zm0 11.109L98.586 100H100Z"/></svg>