<svg width="100" height="100" xmlns="http://www.w3.org/2000/svg"><path d="M5.8 0 10 3.5 14.2 0h-1.4L10 2.334 7.2 0Zm4 0 .2.166.2-.166Zm16 0L30 3.5 34.2 0h-1.4L30 2.334 27.2 0Zm4 0 .2.166.2-.166Zm16 0L50 3.5 54.2 0h-1.4L50 2.334 47.2 0Zm4 0 .2.166.2-.166Zm16 0L70 3.5 74.2 0h-1.4L70 2.334 67.2 0Zm4 0 .2.166.2-.166Zm16 0L90 3.5 94.2 0h-1.4L90 2.334 87.2 0Zm4 0 .2.166.2-.166ZM0 .668v1.164L9.8 10l.2.166.2-.166L20 1.832 29.8 10l.2.166.2-.166L40 1.832 49.8 10l.2.166.2-.166L60 1.832 69.8 10l.2.166.2-.166L80 1.832 89.8 10l.2.166.2-.166 9.8-8.168V.668L90 9 80 .668 70 9 60 .668 50 9 40 .668 30 9 20 .668 10 9ZM0 4v1.166L5.8 10l4.2 3.5 4.2-3.5L20 5.166 25.8 10l4.2 3.5 4.2-3.5L40 5.166 45.8 10l4.2 3.5 4.2-3.5L60 5.166 65.8 10l4.2 3.5 4.2-3.5L80 5.166 85.8 10l4.2 3.5 4.2-3.5 5.8-4.834V4l-7.2 6-2.8 2.334L87.2 10 80 4l-7.2 6-2.8 2.334L67.2 10 60 4l-7.2 6-2.8 2.334L47.2 10 40 4l-7.2 6-2.8 2.334L27.2 10 20 4l-7.2 6-2.8 2.334L7.2 10Zm0 6.668v1.164L9.8 20l.2.166.2-.166 9.8-8.168L29.8 20l.2.166.2-.166 9.8-8.168L49.8 20l.2.166.2-.166 9.8-8.168L69.8 20l.2.166.2-.166 9.8-8.168L89.8 20l.2.166.2-.166 9.8-8.168v-1.164L90 19l-10-8.332L70 19l-10-8.332L50 19l-10-8.332L30 19l-10-8.332L10 19ZM0 14v1.166L5.8 20l4.2 3.5 4.2-3.5 5.8-4.834L25.8 20l4.2 3.5 4.2-3.5 5.8-4.834L45.8 20l4.2 3.5 4.2-3.5 5.8-4.834L65.8 20l4.2 3.5 4.2-3.5 5.8-4.834L85.8 20l4.2 3.5 4.2-3.5 5.8-4.834V14l-7.2 6-2.8 2.334L87.2 20 80 14l-7.2 6-2.8 2.334L67.2 20 60 14l-7.2 6-2.8 2.334L47.2 20 40 14l-7.2 6-2.8 2.334L27.2 20 20 14l-7.2 6-2.8 2.334L7.2 20Zm0 6.668v1.164L9.8 30l.2.166.2-.166 9.8-8.168L29.8 30l.2.166.2-.166 9.8-8.168L49.8 30l.2.166.2-.166 9.8-8.168L69.8 30l.2.166.2-.166 9.8-8.168L89.8 30l.2.166.2-.166 9.8-8.168v-1.164L90 29l-10-8.332L70 29l-10-8.332L50 29l-10-8.332L30 29l-10-8.332L10 29ZM0 24v1.166L5.8 30l4.2 3.5 4.2-3.5 5.8-4.834L25.8 30l4.2 3.5 4.2-3.5 5.8-4.834L45.8 30l4.2 3.5 4.2-3.5 5.8-4.834L65.8 30l4.2 3.5 4.2-3.5 5.8-4.834L85.8 30l4.2 3.5 4.2-3.5 5.8-4.834V24l-7.2 6-2.8 2.334L87.2 30 80 24l-7.2 6-2.8 2.334L67.2 30 60 24l-7.2 6-2.8 2.334L47.2 30 40 24l-7.2 6-2.8 2.334L27.2 30 20 24l-7.2 6-2.8 2.334L7.2 30Zm0 6.668v1.164L9.8 40l.2.166.2-.166 9.8-8.168L29.8 40l.2.166.2-.166 9.8-8.168L49.8 40l.2.166.2-.166 9.8-8.168L69.8 40l.2.166.2-.166 9.8-8.168L89.8 40l.2.166.2-.166 9.8-8.168v-1.164L90 39l-10-8.332L70 39l-10-8.332L50 39l-10-8.332L30 39l-10-8.332L10 39ZM0 34v1.166L5.8 40l4.2 3.5 4.2-3.5 5.8-4.834L25.8 40l4.2 3.5 4.2-3.5 5.8-4.834L45.8 40l4.2 3.5 4.2-3.5 5.8-4.834L65.8 40l4.2 3.5 4.2-3.5 5.8-4.834L85.8 40l4.2 3.5 4.2-3.5 5.8-4.834V34l-7.2 6-2.8 2.334L87.2 40 80 34l-7.2 6-2.8 2.334L67.2 40 60 34l-7.2 6-2.8 2.334L47.2 40 40 34l-7.2 6-2.8 2.334L27.2 40 20 34l-7.2 6-2.8 2.334L7.2 40Zm0 6.668v1.164L9.8 50l.2.166.2-.166 9.8-8.168L29.8 50l.2.166.2-.166 9.8-8.168L49.8 50l.2.166.2-.166 9.8-8.168L69.8 50l.2.166.2-.166 9.8-8.168L89.8 50l.2.166.2-.166 9.8-8.168v-1.164L90 49l-10-8.332L70 49l-10-8.332L50 49l-10-8.332L30 49l-10-8.332L10 49ZM0 44v1.166L5.8 50l4.2 3.5 4.2-3.5 5.8-4.834L25.8 50l4.2 3.5 4.2-3.5 5.8-4.834L45.8 50l4.2 3.5 4.2-3.5 5.8-4.834L65.8 50l4.2 3.5 4.2-3.5 5.8-4.834L85.8 50l4.2 3.5 4.2-3.5 5.8-4.834V44l-7.2 6-2.8 2.334L87.2 50 80 44l-7.2 6-2.8 2.334L67.2 50 60 44l-7.2 6-2.8 2.334L47.2 50 40 44l-7.2 6-2.8 2.334L27.2 50 20 44l-7.2 6-2.8 2.334L7.2 50Zm0 6.668v1.164L9.8 60l.2.166.2-.166 9.8-8.168L29.8 60l.2.166.2-.166 9.8-8.168L49.8 60l.2.166.2-.166 9.8-8.168L69.8 60l.2.166.2-.166 9.8-8.168L89.8 60l.2.166.2-.166 9.8-8.168v-1.164L90 59l-10-8.332L70 59l-10-8.332L50 59l-10-8.332L30 59l-10-8.332L10 59ZM0 54v1.166L5.8 60l4.2 3.5 4.2-3.5 5.8-4.834L25.8 60l4.2 3.5 4.2-3.5 5.8-4.834L45.8 60l4.2 3.5 4.2-3.5 5.8-4.834L65.8 60l4.2 3.5 4.2-3.5 5.8-4.834L85.8 60l4.2 3.5 4.2-3.5 5.8-4.834V54l-7.2 6-2.8 2.334L87.2 60 80 54l-7.2 6-2.8 2.334L67.2 60 60 54l-7.2 6-2.8 2.334L47.2 60 40 54l-7.2 6-2.8 2.334L27.2 60 20 54l-7.2 6-2.8 2.334L7.2 60Zm0 6.668v1.164L9.8 70l.2.166.2-.166 9.8-8.168L29.8 70l.2.166.2-.166 9.8-8.168L49.8 70l.2.166.2-.166 9.8-8.168L69.8 70l.2.166.2-.166 9.8-8.168L89.8 70l.2.166.2-.166 9.8-8.168v-1.164L90 69l-10-8.332L70 69l-10-8.332L50 69l-10-8.332L30 69l-10-8.332L10 69ZM0 64v1.166L5.8 70l4.2 3.5 4.2-3.5 5.8-4.834L25.8 70l4.2 3.5 4.2-3.5 5.8-4.834L45.8 70l4.2 3.5 4.2-3.5 5.8-4.834L65.8 70l4.2 3.5 4.2-3.5 5.8-4.834L85.8 70l4.2 3.5 4.2-3.5 5.8-4.834V64l-7.2 6-2.8 2.334L87.2 70 80 64l-7.2 6-2.8 2.334L67.2 70 60 64l-7.2 6-2.8 2.334L47.2 70 40 64l-7.2 6-2.8 2.334L27.2 70 20 64l-7.2 6-2.8 2.334L7.2 70Zm0 6.668v1.164L9.8 80l.2.166.2-.166 9.8-8.168L29.8 80l.2.166.2-.166 9.8-8.168L49.8 80l.2.166.2-.166 9.8-8.168L69.8 80l.2.166.2-.166 9.8-8.168L89.8 80l.2.166.2-.166 9.8-8.168v-1.164L90 79l-10-8.332L70 79l-10-8.332L50 79l-10-8.332L30 79l-10-8.332L10 79ZM0 74v1.166L5.8 80l4.2 3.5 4.2-3.5 5.8-4.834L25.8 80l4.2 3.5 4.2-3.5 5.8-4.834L45.8 80l4.2 3.5 4.2-3.5 5.8-4.834L65.8 80l4.2 3.5 4.2-3.5 5.8-4.834L85.8 80l4.2 3.5 4.2-3.5 5.8-4.834V74l-7.2 6-2.8 2.334L87.2 80 80 74l-7.2 6-2.8 2.334L67.2 80 60 74l-7.2 6-2.8 2.334L47.2 80 40 74l-7.2 6-2.8 2.334L27.2 80 20 74l-7.2 6-2.8 2.334L7.2 80Zm0 6.668v1.164L9.8 90l.2.166.2-.166 9.8-8.168L29.8 90l.2.166.2-.166 9.8-8.168L49.8 90l.2.166.2-.166 9.8-8.168L69.8 90l.2.166.2-.166 9.8-8.168L89.8 90l.2.166.2-.166 9.8-8.168v-1.164L90 89l-10-8.332L70 89l-10-8.332L50 89l-10-8.332L30 89l-10-8.332L10 89ZM0 84v1.166L5.8 90l4.2 3.5 4.2-3.5 5.8-4.834L25.8 90l4.2 3.5 4.2-3.5 5.8-4.834L45.8 90l4.2 3.5 4.2-3.5 5.8-4.834L65.8 90l4.2 3.5 4.2-3.5 5.8-4.834L85.8 90l4.2 3.5 4.2-3.5 5.8-4.834V84l-7.2 6-2.8 2.334L87.2 90 80 84l-7.2 6-2.8 2.334L67.2 90 60 84l-7.2 6-2.8 2.334L47.2 90 40 84l-7.2 6-2.8 2.334L27.2 90 20 84l-7.2 6-2.8 2.334L7.2 90Zm0 6.668v1.164L9.8 100h.4l9.8-8.168L29.8 100h.4l9.8-8.168L49.8 100h.4l9.8-8.168L69.8 100h.4l9.8-8.168L89.8 100h.4l9.8-8.168v-1.164L90 99l-10-8.332L70 99l-10-8.332L50 99l-10-8.332L30 99l-10-8.332L10 99ZM0 94v1.166L5.8 100h1.4zm20 0-7.2 6h1.4l5.8-4.834L25.8 100h1.4zm20 0-7.2 6h1.4l5.8-4.834L45.8 100h1.4zm20 0-7.2 6h1.4l5.8-4.834L65.8 100h1.4zm20 0-7.2 6h1.4l5.8-4.834L85.8 100h1.4zm20 0-7.2 6h1.4l5.8-4.834Z" fill-rule="evenodd"/></svg>