<svg viewBox="0 0 24 24" xmlns="http://www.w3.org/2000/svg" xml:space="preserve" fill-rule="evenodd" clip-rule="evenodd" stroke-linejoin="round" stroke-miterlimit="2"><path d="m7.287 23.977-.44-.441.44-.44.441.44-.441.441Zm-2.708-.019-.422-.422.422-.421.421.421-.421.422Zm-1.355-.052-.369-.37.369-.369.37.369-.37.37Zm-1.354-.008-.361-.362.361-.361.362.361-.362.362Zm9.48-.027-.335-.335.335-.335.335.335-.335.335Zm2.709-.005-.33-.33.33-.329.33.329-.33.33Zm-5.417-.061-.269-.269.269-.268.269.268-.269.269Zm-8.126-.011-.258-.258.258-.257.258.257-.258.258Zm9.48-.027-.23-.231.23-.23.231.23-.231.231Zm10.835-.006-.225-.225.225-.224.224.224-.224.225Zm-5.418-.009-.215-.216.215-.215.216.215-.216.216Zm2.709-.021-.195-.195.195-.194.195.194-.195.195Zm-1.354-.003-.192-.192.192-.191.191.191-.191.192Zm2.708-.008-.184-.184.184-.183.184.183-.184.184Zm2.709-.024-.159-.16.159-.159.159.159-.159.16Zm1.354-.033-.127-.127.127-.127.127.127-.127.127Zm-10.834-.034-.092-.093.092-.092.092.092-.092.093Zm-6.772-.017-.075-.076.075-.075.075.075-.075.076ZM24 22.129v.107l-.461.46-.514-.514.514-.513.461.46Zm-22.13.526-.472-.473.472-.472.472.472-.472.473Zm16.252-.049-.424-.424.424-.423.424.423-.424.424Zm1.354-.027-.396-.397.396-.396.396.396-.396.397ZM7.287 22.57l-.387-.388.387-.387.388.387-.388.388Zm1.355-.018-.37-.37.37-.369.369.369-.369.37Zm6.771-.014-.355-.356.355-.355.356.355-.356.356Zm6.772-.05-.306-.306.306-.306.306.306-.306.306Zm-18.961-.017-.288-.289.288-.288.289.288-.289.289Zm10.835-.024-.265-.265.265-.264.265.264-.265.265Zm-8.126-.002-.262-.263.262-.262.262.262-.262.263Zm14.898-.042-.221-.221.221-.22.22.22-.22.221Zm-8.126-.033-.188-.188.188-.187.187.187-.187.188ZM.516 22.354l-.172-.172.172-.171.171.171-.171.172Zm16.252-.024-.148-.148.148-.147.147.147-.147.148Zm-5.418-.021-.126-.127.126-.126.127.126-.127.127Zm-1.354-.01-.116-.117.116-.116.116.116-.116.117Zm-5.417-.055-.061-.062.061-.061.061.061-.061.062Zm12.189-.895-.521-.52.521-.521.52.521-.52.52Zm-9.481-.04-.48-.48.48-.481.481.481-.481.48Zm-2.708-.043-.437-.437.437-.438.437.438-.437.437Zm16.252-.023-.415-.414.415-.415.415.415-.415.414ZM.516 21.24l-.411-.411.411-.412.411.412-.411.411Zm8.126-.025-.387-.386.387-.387.386.387-.386.386Zm5.417-.058-.329-.328.329-.329.329.329-.329.328Zm9.48-.002-.326-.326.326-.327.327.327-.327.326Zm-8.126-.029-.297-.298.297-.297.298.297-.298.298Zm-12.189-.067-.23-.23.23-.231.231.231-.231.23Zm14.898-.025-.205-.205.205-.206.205.206-.205.205Zm4.063-.028-.178-.177.178-.178.178.178-.178.177Zm-12.189-.003-.175-.174.175-.175.175.175-.175.174ZM12.705 21l-.171-.171.171-.171.171.171-.171.171Zm-1.355-.006-.165-.165.165-.166.165.166-.165.165Zm8.126-.018-.147-.147.147-.148.148.148-.148.147ZM1.87 20.928l-.099-.099.099-.1.099.1-.099.099Zm4.063-.034-.066-.066.066-.065.066.065-.066.066Zm10.835-.919-.501-.5.501-.501.5.501-.5.5Zm-9.481-.002-.498-.498.498-.498.498.498-.498.498Zm-1.354-.006-.493-.492.493-.493.493.493-.493.492Zm17.606-.069-.424-.423.424-.424.424.424-.424.423Zm-18.96-.027-.397-.396.397-.397.397.397-.397.396Zm14.897-.012-.384-.384.384-.385.385.385-.385.384Zm-16.252-.042-.343-.342.343-.343.343.343-.343.342Zm6.772-.02-.323-.322.323-.323.323.323-.323.322Zm2.709-.013-.31-.309.31-.31.309.31-.309.309Zm9.48-.008-.302-.301.302-.302.302.302-.302.301Zm-10.835-.07-.231-.231.231-.232.232.232-.232.231Zm2.709-.041-.19-.19.19-.191.19.191-.19.19ZM.516 19.65l-.175-.175.175-.176.175.176-.175.175Zm14.897-.018-.158-.157.158-.158.158.158-.158.157Zm5.418-.005-.153-.152.153-.152.152.152-.152.152Zm-2.709-.036-.116-.116.116-.117.116.117-.116.116ZM1.87 19.578l-.103-.103.103-.104.103.104-.103.103Zm6.772-.05-.054-.053.054-.054.053.054-.053.053Zm1.354-.896-.512-.511.512-.512.512.512-.512.511Zm-4.063-.028-.484-.483.484-.484.484.484-.484.483Zm1.354-.017-.466-.466.466-.467.467.467-.467.466Zm9.481-.009-.458-.457.458-.458.458.458-.458.457Zm2.708-.045-.412-.412.412-.412.412.412-.412.412Zm-1.354-.009-.403-.403.403-.404.403.404-.403.403Zm5.417-.003-.4-.4.4-.401.401.401-.401.4Zm-21.669-.08-.32-.32.32-.321.32.321-.32.32Zm13.543-.063-.258-.257.258-.258.258.258-.258.257Zm-12.189-.054-.203-.203.203-.204.204.204-.204.203Zm17.607-.023-.181-.18.181-.181.18.181-.18.18ZM.516 18.296l-.176-.175.176-.176.175.176-.175.175Zm13.543-.002-.174-.173.174-.174.173.174-.173.173Zm-9.48-.04-.134-.133.134-.134.133.134-.133.133Zm4.063-.037-.097-.096.097-.097.097.097-.097.096Zm4.063-.015-.082-.081.082-.082.081.082-.081.081Zm-1.355-.001-.08-.08.08-.08.08.08-.08.08Zm10.835-.012-.069-.068.069-.069.068.069-.068.068Zm-8.126-.921-.502-.501.502-.502.502.502-.502.501Zm8.126-.011-.491-.49.491-.491.491.491-.491.49Zm-6.772-.07-.421-.42.421-.421.421.421-.421.42Zm-5.417-.071-.349-.349.349-.349.349.349-.349.349Zm-9.48-.018-.332-.331.332-.332.331.332-.331.331Zm17.606-.039-.293-.292.293-.293.292.293-.292.292Zm-13.543-.012-.28-.28.28-.28.28.28-.28.28Zm14.897-.005-.275-.275.275-.276.276.276-.276.275Zm1.355-.019-.257-.256.257-.257.256.257-.256.256Zm-4.063-.011-.246-.245.246-.246.245.246-.245.245Zm-8.126-.005-.241-.24.241-.241.24.241-.24.24Zm-6.772-.014-.227-.226.227-.227.227.227-.227.226Zm9.48-.041-.185-.185.185-.186.186.186-.186.185Zm-4.063-.005-.18-.18.18-.181.181.181-.181.18Zm16.252-.005-.175-.175.175-.175.175.175-.175.175ZM3.224 16.91l-.143-.143.143-.144.144.144-.144.143Zm9.481-.019-.125-.124.125-.125.125.125-.125.124Zm-6.772-.018-.106-.106.106-.106.106.106-.106.106Zm10.835-.946-.515-.514.515-.514.514.514-.514.514Zm-2.709-.041-.473-.473.473-.474.473.474-.473.473ZM24 15.408v.009l-.461.461-.465-.465.465-.465.461.46Zm-11.295.458-.453-.453.453-.453.453.453-.453.453Zm9.48-.009-.445-.444.445-.445.445.445-.445.444ZM.516 15.793l-.381-.38.381-.381.38.381-.38.38Zm9.48-.006-.375-.374.375-.375.375.375-.375.374Zm9.48-.024-.351-.35.351-.351.351.351-.351.35Zm-13.543-.012-.339-.338.339-.339.339.339-.339.338Zm-4.063-.042-.297-.296.297-.297.297.297-.297.296Zm5.417-.043-.253-.253.253-.254.254.254-.254.253Zm13.544-.009-.245-.244.245-.245.244.245-.244.244Zm-17.607-.02L3 15.413l.224-.225.225.225-.225.224Zm12.189-.042-.182-.182.182-.183.183.183-.183.182Zm2.709-.037-.145-.145.145-.146.145.146-.145.145Zm-6.772-.049-.096-.096.096-.097.097.097-.097.096Zm-6.771-.004-.093-.092.093-.093.092.093-.092.092Zm4.063-.004-.088-.088.088-.088.088.088-.088.088Zm-2.709-.922-.521-.52.521-.521.521.521-.521.52Zm8.126-.032-.488-.488.488-.488.488.488-.488.488ZM.516 14.546l-.488-.487.488-.488.487.488-.487.487Zm20.315-.019-.469-.468.469-.468.468.468-.468.468Zm2.708-.013-.455-.455.455-.455.455.455-.455.455Zm-4.063-.012-.444-.443.444-.444.444.444-.444.443Zm-10.834-.023-.421-.42.421-.42.42.42-.42.42Zm4.063-.033-.387-.387.387-.387.387.387-.387.387Zm-9.481-.052-.335-.335.335-.336.336.336-.336.335Zm8.126-.042-.293-.293.293-.294.294.294-.294.293Zm5.418-.013-.281-.28.281-.281.28.281-.28.28Zm1.354-.027-.254-.253.254-.254.253.254-.253.253Zm-13.543-.016-.238-.237.238-.238.238.238-.238.237Zm2.708-.003-.234-.234.234-.235.235.235-.235.234Zm8.126-.052-.182-.182.182-.183.183.183-.183.182ZM1.87 14.239l-.18-.18.18-.181.18.181-.18.18Zm8.126-.008-.172-.172.172-.172.172.172-.172.172Zm12.189-.016-.157-.156.157-.157.156.157-.156.156Zm-12.189-.994-.516-.516.516-.516.516.516-.516.516Zm2.709-.002-.515-.514.515-.515.515.515-.515.514Zm-8.126-.039-.476-.475.476-.476.476.476-.476.475Zm10.834-.02-.455-.455.455-.455.455.455-.455.455Zm4.063-.018-.438-.437.438-.438.438.438-.438.437Zm-13.543-.024-.414-.413.414-.414.414.414-.414.413Zm16.252-.015-.399-.398.399-.399.399.399-.399.398Zm-10.835-.066-.332-.332.332-.333.333.333-.333.332Zm12.189-.036-.296-.296.296-.297.297.297-.297.296Zm-5.417-.034-.263-.262.263-.263.262.263-.262.262ZM1.87 12.925l-.22-.22.22-.22.22.22-.22.22Zm5.417-.025-.195-.195.195-.195.195.195-.195.195Zm13.544-.009-.187-.186.187-.186.186.186-.186.186Zm-17.607-.048-.138-.138.138-.139.139.139-.139.138Zm10.835-.006-.132-.132.132-.132.132.132-.132.132Zm2.709-.021-.112-.111.112-.112.111.112-.111.111Zm-8.126-.002-.109-.109.109-.109.109.109-.109.109Zm-8.126-.043-.067-.066.067-.067.066.067-.066.066Zm6.771-.914-.506-.506.506-.507.507.507-.507.506ZM24 11.327v.048l-.461.46-.484-.484.484-.485.461.461Zm-1.815.486-.462-.462.462-.462.462.462-.462.462Zm-5.417-.004-.459-.458.459-.459.458.459-.458.458Zm-1.355-.003-.455-.455.455-.456.456.456-.456.455Zm-1.354-.102-.354-.353.354-.354.353.354-.353.353Zm-4.063-.091-.262-.262.262-.262.262.262-.262.262Zm-6.772-.025-.237-.237.237-.237.238.237-.238.237Zm5.418-.031-.207-.206.207-.207.206.207-.206.206Zm-8.126-.012-.194-.194.194-.195.194.195-.194.194Zm10.834-.002-.192-.192.192-.193.193.193-.193.192Zm6.772-.001-.192-.191.192-.192.192.192-.192.191Zm-5.417-.003-.189-.188.189-.188.188.188-.188.188Zm6.771-.004-.184-.184.184-.184.184.184-.184.184ZM5.933 11.51l-.159-.159.159-.159.159.159-.159.159Zm14.898-.048-.112-.111.112-.111.111.111-.111.111ZM4.579 11.46l-.109-.109.109-.109.109.109-.109.109Zm-2.709-.001-.108-.108.108-.108.108.108-.108.108Zm9.48-.961-.501-.501.501-.502.502.502-.502.501Zm-1.354-.03-.471-.471.471-.471.471.471-.471.471Zm10.835-.134-.338-.337.338-.338.337.338-.337.337Zm-8.126-.018-.319-.319.319-.319.319.319-.319.319Zm9.48-.019-.301-.3.301-.301.301.301-.301.3Zm-14.898-.031-.269-.269.269-.269.269.269-.269.269Zm-6.771-.021-.249-.248.249-.249.248.249-.248.248Zm1.354-.028-.22-.22.22-.221.221.221-.221.22Zm6.772-.009-.212-.211.212-.212.211.212-.211.211Zm-4.063-.027-.184-.184.184-.184.184.184-.184.184Zm12.189-.017-.167-.167.167-.167.166.167-.166.167Zm1.354-.01-.158-.157.158-.158.158.158-.158.157Zm5.417-.004-.153-.153.153-.154.154.154-.154.153Zm-17.606-.028-.125-.125.125-.126.126.126-.126.125Zm8.126-.003-.122-.122.122-.123.122.123-.122.122Zm1.354-.011-.111-.111.111-.111.111.111-.111.111Zm-12.189-.011-.1-.1.1-.1.1.1-.1.1Zm16.252-.045-.055-.055.055-.056.056.056-.056.055ZM4.579 9.126l-.483-.483.483-.483.483.483-.483.483Zm5.417-.023-.461-.46.461-.461.461.461-.461.46Zm-4.063-.007-.453-.453.453-.453.453.453-.453.453Zm13.543-.005-.448-.448.448-.448.449.448-.449.448ZM.516 9.084l-.442-.441.442-.442.442.442-.442.441Zm23.023-.005-.436-.436.436-.437.437.437-.437.436Zm-9.48-.065-.371-.371.371-.371.371.371-.371.371Zm6.772-.007-.365-.364.365-.365.364.365-.364.364ZM8.642 8.968l-.326-.325.326-.325.325.325-.325.325ZM3.224 8.92l-.277-.277.277-.277.277.277-.277.277Zm18.961-.018-.259-.259.259-.259.259.259-.259.259Zm-4.063-.006-.253-.253.253-.253.253.253-.253.253Zm-2.709-.027-.226-.226.226-.227.227.227-.227.226Zm-4.063-.032-.194-.194.194-.194.195.194-.195.194Zm1.355-.011-.184-.183.184-.184.183.184-.183.183Zm-5.418-.034-.149-.149.149-.149.149.149-.149.149Zm9.481-.036-.114-.113.114-.114.113.114-.113.113ZM1.87 8.732l-.089-.089.089-.089.089.089-.089.089Zm8.126-.987-.456-.456.456-.456.456.456-.456.456Zm8.126-.001-.455-.455.455-.455.455.455-.455.455ZM11.35 7.74l-.451-.451.451-.451.451.451-.451.451Zm2.709-.048-.403-.403.403-.403.403.403-.403.403ZM.516 7.682l-.393-.393.393-.393.393.393-.393.393Zm20.315-.015-.379-.378.379-.378.378.378-.378.378ZM1.87 7.631l-.342-.342.342-.343.343.343-.343.342Zm4.063-.028-.314-.314.314-.314.314.314-.314.314Zm6.772-.029-.285-.285.285-.285.285.285-.285.285Zm6.771 0-.285-.285.285-.285.285.285-.285.285Zm4.063-.042-.243-.243.243-.243.243.243-.243.243Zm-18.96-.008-.236-.235.236-.236.235.236-.235.235Zm4.063-.018-.218-.217.218-.217.217.217-.217.217Zm-1.355-.002-.215-.215.215-.215.215.215-.215.215Zm8.126-.041-.174-.174.174-.174.174.174-.174.174Zm-12.189-.04-.134-.134.134-.135.135.135-.135.134Zm13.544-.011-.123-.123.123-.123.122.123-.122.123Zm5.417-.05-.074-.073.074-.074.073.074-.073.073Zm-18.961-.93-.497-.497.497-.497.497.497-.497.497Zm9.481-.079-.418-.418.418-.418.418.418-.418.418Zm8.126-.01-.409-.408.409-.409.408.409-.408.408Zm-1.355-.035-.373-.373.373-.374.374.374-.374.373ZM5.933 6.297l-.362-.362.362-.362.362.362-.362.362ZM.516 6.295l-.36-.36.36-.36.36.36-.36.36Zm13.543-.045-.315-.315.315-.315.315.315-.315.315Zm-5.417-.154-.162-.161.162-.161.161.161-.161.161Zm6.771-.005-.156-.156.156-.157.157.157-.157.156ZM1.87 6.086l-.151-.151.151-.151.151.151-.151.151Zm9.48-.002-.149-.149.149-.15.15.15-.15.149Zm-6.771-.025-.124-.124.124-.124.124.124-.124.124Zm2.708-.004-.119-.12.119-.12.12.12-.12.12Zm16.252-.005-.115-.115.115-.115.115.115-.115.115Zm-6.771-.004-.112-.111.112-.111.111.111-.111.111Zm-6.772-.012-.099-.099.099-.099.099.099-.099.099Zm12.189-.007-.092-.092.092-.092.092.092-.092.092Zm-4.063-.033-.059-.059.059-.059.059.059-.059.059ZM8.642 4.93l-.349-.349.349-.349.349.349-.349.349Zm13.543-.077-.272-.272.272-.272.272.272-.272.272Zm-4.063-.018-.255-.254.255-.254.254.254-.254.254Zm-4.063-.029-.225-.225.225-.225.225.225-.225.225Zm1.354-.006-.219-.219.219-.22.22.22-.22.219ZM.516 4.784l-.204-.203.204-.204.203.204-.203.203Zm9.48-.003-.2-.2.2-.2.2.2-.2.2Zm10.835-.019-.182-.181.182-.182.181.182-.181.181ZM5.933 4.755l-.174-.174.174-.175.175.175-.175.174Zm-1.354-.006-.168-.168.168-.168.168.168-.168.168Zm18.96-.01-.158-.158.158-.158.158.158-.158.158Zm-4.063-.006-.152-.152.152-.152.153.152-.153.152ZM3.224 4.728l-.147-.147.147-.147.148.147-.148.147Zm13.544-.007-.141-.14.141-.141.14.141-.14.14Zm-5.418 0-.14-.14.14-.14.14.14-.14.14ZM7.287 4.71l-.129-.129.129-.129.13.129-.13.129Zm5.418-.02-.11-.109.11-.11.109.11-.109.109ZM1.87 4.687l-.106-.106.106-.106.106.106-.106.106Zm17.606-.943-.517-.517.517-.518.518.518-.518.517ZM5.933 3.742l-.516-.515.516-.516.516.516-.516.515Zm9.48-.008-.506-.507.506-.507.507.507-.507.507Zm-5.417-.001-.506-.506.506-.506.506.506-.506.506Zm-5.417-.042-.464-.464.464-.464.464.464-.464.464Zm17.606-.009-.455-.455.455-.455.455.455-.455.455Zm-14.898-.01-.445-.445.445-.445.446.445-.446.445Zm4.063-.02-.425-.425.425-.426.426.426-.426.425ZM.516 3.606l-.38-.379.38-.379.379.379-.379.379Zm17.606-.004-.375-.375.375-.375.375.375-.375.375ZM1.87 3.537l-.31-.31.31-.31.31.31-.31.31Zm14.898-.049-.262-.261.262-.261.261.261-.261.261Zm-2.709-.102-.159-.159.159-.159.159.159-.159.159ZM3.224 3.383l-.156-.156.156-.156.156.156-.156.156Zm20.315-.059-.097-.097.097-.097.097.097-.097.097Zm-14.897-.02-.078-.077.078-.077.077.077-.077.077Zm4.063-.013-.065-.064.065-.064.064.064-.064.064Zm8.126-.006-.058-.058.058-.058.057.058-.057.058ZM4.579 2.333l-.461-.46.461-.461.46.461-.46.46Zm18.96-.002-.458-.458.458-.458.458.458-.458.458Zm-8.126-.006-.452-.452.452-.452.453.452-.453.452Zm5.418-.047-.406-.405.406-.405.405.405-.405.405ZM7.287 2.249l-.376-.376.376-.376.377.376-.377.376Zm1.355-.042-.334-.334.334-.334.334.334-.334.334Zm4.063-.038-.297-.296.297-.296.296.296-.296.296ZM1.87 2.117l-.244-.244.244-.244.245.244-.245.244Zm12.189-.021-.223-.223.223-.223.223.223-.223.223Zm2.709-.045-.179-.178.179-.178.178.178-.178.178ZM3.224 2.044l-.171-.171.171-.171.172.171-.172.171Zm18.961-.015-.156-.156.156-.156.156.156-.156.156Zm-2.709-.003-.153-.153.153-.153.153.153-.153.153Zm-9.48-.022-.131-.131.131-.131.131.131-.131.131Zm-9.48-.01-.121-.121.121-.121.121.121-.121.121Zm5.417-.024-.097-.097.097-.097.097.097-.097.097Zm12.189-.017-.081-.08.081-.08.08.08-.08.08Zm-6.772-.002-.077-.078.077-.078.078.078-.078.078Zm-5.417-.915L5.416.519l.517-.517.517.517-.517.517ZM.516 1.029l-.51-.51.51-.51.51.51-.51.51Zm2.708-.026L2.74.519l.484-.484.485.484-.485.484ZM22.185.978l-.459-.459.459-.459.459.459-.459.459ZM1.87.97 1.419.519 1.87.068l.451.451L1.87.97ZM23.539.959l-.44-.44.44-.44.44.44-.44.44ZM18.122.866l-.348-.347.348-.347.347.347-.347.347ZM16.768.865l-.347-.346.347-.347.346.347-.346.346ZM9.996.827 9.688.519l.308-.308.308.308-.308.308ZM4.579.791 4.306.519l.273-.272.272.272-.272.272ZM7.287.76 7.046.519l.241-.241.242.241-.242.241Zm5.418-.01-.231-.231.231-.231.231.231-.231.231ZM11.35.747l-.228-.228.228-.228.229.228-.229.228ZM19.476.72l-.201-.201.201-.201.201.201-.201.201ZM15.413.705l-.185-.186.185-.186.186.186-.186.186ZM14.059.639l-.121-.12.121-.12.12.12-.12.12Zm6.772-.001-.12-.119.12-.119.119.119-.119.119ZM8.642.573 8.588.519l.054-.054.054.054-.054.054Z" fill="#231f20" fill-rule="nonzero"/></svg>