<svg version="1.0" width="100" height="100" xmlns="http://www.w3.org/2000/svg"><path d="M0 0v.666h2.371l2.375 3.887-2.375 3.885H0v1.32h2.371l2.375 3.885-2.375 3.886H0v1.319h2.371l2.375 3.884-2.375 3.89H0v1.316h2.371l2.375 3.886-2.375 3.887H0v1.318h2.371l2.375 3.885-2.375 3.889H0v1.316h2.371l2.375 3.887-2.375 3.887H0v1.316h2.371l2.375 3.889-2.375 3.884H0v1.319h2.371l2.375 3.886-2.375 3.885H0v1.32h2.371l2.375 3.885-2.375 3.887H0v1.318h2.371l2.375 3.885-2.375 3.887H0v1.318h2.371l2.375 3.887-2.375 3.885H0V100h3.586l1.486-2.424.889-1.457h4.746l.094.152L13.078 100h7.18l1.476-2.424.893-1.457h4.744l1.914 3.131.46.75h7.177l2.371-3.88h4.746l2.373 3.88h7.178l2.373-3.88h4.742l.092.144 2.28 3.736h7.179l2.371-3.88h4.746l1.092 1.79 1.28 2.09h7.177l1.478-2.424.895-1.457h4.744l1.912 3.131.46.75H100v-.656h-2.373l-2.371-3.885 2.371-3.887H100v-1.318h-2.373l-2.371-3.887 2.371-3.885H100v-1.318h-2.373l-2.371-3.887.52-.853 1.851-3.031H100v-1.32h-2.375l-2.37-3.885 2.37-3.887H100v-1.319h-2.373l-2.375-3.884 2.375-3.889H100v-1.316h-2.373l-2.375-3.887 2.375-3.887H100v-1.316h-2.373l-2.371-3.889 2.371-3.885H100v-1.318h-2.373l-2.375-3.887 2.375-3.887H100v-1.316h-2.373l-2.375-3.889 2.375-3.884H100v-1.319h-2.373l-2.371-3.886 2.371-3.885H100v-1.32h-2.373l-2.371-3.885L97.627.666H100V0h-3.592l.004.006-2.375 3.887h-4.742L86.92.006 86.926 0h-7.184l.004.006-2.377 3.887h-4.74L70.254.006 70.258 0h-7.184l.004.006-2.375 3.887h-4.74L53.588.006 53.592 0H46.41l.004.006-.014.02-2.363 3.867h-4.742L36.92.006 36.924 0h-7.182l.004.006-2.377 3.887h-4.74L20.256.006 20.26 0h-7.184l.004.006-2.373 3.887H5.961L3.586.006 3.588 0Zm14.297.666h4.742l2.373 3.887-2.373 3.885h-4.742L11.92 4.553Zm16.662 0h4.746l2.375 3.887-2.375 3.885H30.96l-2.371-3.885 1.183-1.944Zm16.67 0h4.744l2.373 3.887-2.373 3.885h-4.744l-2.377-3.885 1.19-1.944Zm16.666 0h4.742l2.375 3.887-2.375 3.885h-4.742l-2.371-3.885Zm16.666 0h4.744l2.377 3.887-2.377 3.885h-4.744l-2.375-3.885zm-75 4.545h4.746l.094.154 2.28 3.733-2.374 3.884H5.961L3.586 9.098zm16.668 0h4.742l1.914 3.133.461.754-2.375 3.884H22.63l-2.375-3.884zm16.666 0h4.742l2.377 3.887-2.377 3.884h-4.742L36.92 9.098zm16.668 0h4.742l.092.146 2.281 3.74-2.375 3.885h-4.74l-2.375-3.884zm16.666 0h4.742l1.094 1.791 1.283 2.096-2.377 3.884H72.63l-2.375-3.884zm16.666 0h4.744l1.912 3.133.461.754-2.373 3.884h-4.744l-2.377-3.884ZM14.297 9.758h4.742l2.373 3.885-2.373 3.886h-4.742l-2.377-3.886zm16.662 0h4.746l2.375 3.885-2.375 3.886H30.96l-2.371-3.886zm16.67 0h4.744l2.373 3.885-2.373 3.886h-4.744l-2.377-3.886zm16.666 0h4.742l2.375 3.885-2.375 3.886h-4.742l-2.373-3.886zm16.666 0h4.744l2.377 3.885-2.377 3.886h-4.744l-2.375-3.886zm-75 4.545h4.746l.094.152 2.28 3.732-2.374 3.89H5.961L4.773 20.13l-1.187-1.943 1.187-1.944zm16.668 0h4.742l1.914 3.13.461.754-2.375 3.89H22.63l-1.19-1.947-1.185-1.943 1.185-1.944zm16.666 0h4.742l2.377 3.884-2.377 3.89h-4.742l-2.375-3.89zm16.668 0h4.742l.092.144 2.281 3.74-2.375 3.89h-4.74l-2.375-3.89zm16.666 0h4.742l1.094 1.79 1.283 2.095-2.377 3.888H72.63l-2.375-3.889zm16.666 0h4.744l1.912 3.13.461.754-2.373 3.89h-4.744l-1.186-1.946-1.19-1.944 1.19-1.943Zm-74.998 4.545h4.742l2.373 3.884-2.373 3.89h-4.742l-2.377-3.89zm16.662 0h4.746l2.375 3.884-2.375 3.89H30.96l-2.371-3.89zm16.67 0h4.744l2.373 3.884-2.373 3.89h-4.744l-2.379-3.89Zm16.666 0h4.742l2.375 3.884-2.375 3.89h-4.742l-2.373-3.89 1.185-1.941zm16.666 0h4.744l2.377 3.884-2.377 3.89h-4.744l-2.375-3.89zm-75 4.545h4.746l2.373 3.886-2.373 3.887H5.961l-2.375-3.889zm16.668 0h4.742l.672 1.1 1.703 2.786-2.375 3.887H22.63l-2.375-3.889zm16.666 0h4.742l2.377 3.886-2.377 3.887h-4.742l-2.375-3.889zm16.668 0h4.742l1.16 1.896 1.213 1.988v.002l-2.373 3.887h-4.742l-2.375-3.889zm16.666 0h4.742l1.695 2.771.682 1.115-2.377 3.887H72.63l-2.375-3.889zm16.666 0h4.744l.668 1.1 1.705 2.786-2.373 3.887h-4.744l-2.377-3.889Zm-74.998 4.544h4.742l2.373 3.887-2.373 3.887h-4.742l-2.377-3.887zm16.664 0h4.744l2.375 3.887-2.375 3.887H30.96l-2.371-3.887zm16.668 0h4.744l2.373 3.887-2.373 3.887h-4.744l-2.379-3.887Zm16.666 0h4.742l2.375 3.887-2.375 3.887h-4.742l-2.373-3.887.3-.496zm16.666 0h4.744l2.377 3.887-2.377 3.887h-4.744l-2.375-3.887zm-75 4.545h4.746l.094.157 2.28 3.73-2.374 3.887H5.961l-1.684-2.754-.691-1.133 1.187-1.943zm16.668 0h4.742l1.914 3.133.461.754-2.375 3.887h-4.744l-1.682-2.754-.69-1.133 1.186-1.943zm16.666 0h4.742l2.377 3.887-2.375 3.887h-4.746l-2.373-3.887zm16.668 0h4.742l.092.149 2.281 3.738-2.375 3.887h-4.74l-2.375-3.887zm16.666 0h4.742l1.094 1.793 1.283 2.094-2.377 3.887h-4.744l-2.373-3.887zm16.666 0h4.744l1.912 3.133.461.754-2.373 3.887h-4.744l-1.682-2.754-.693-1.133 1.19-1.943zM14.297 37.03h4.742l2.373 3.885-2.373 3.889h-4.742l-2.377-3.889zm16.662 0h4.746l2.375 3.885-2.375 3.889H30.96l-2.371-3.889zm16.67 0h4.744l2.373 3.885-2.373 3.889h-4.744l-2.377-3.889zm16.666 0h4.742l2.375 3.885-2.375 3.889h-4.742l-2.373-3.889zm16.666 0h4.744l2.377 3.885-2.377 3.889h-4.744l-2.375-3.889zm-75 4.545h4.746l.094.155 2.28 3.732-2.374 3.887H5.961l-1.188-1.944-1.187-1.943zm16.668 0h4.742l1.914 3.133.461.754-2.375 3.887H22.63l-1.188-1.944-1.185-1.943zm16.664 0h4.746l2.375 3.887-2.377 3.887h-4.742L36.92 45.46l1.187-1.945zm16.67 0h4.742l.092.147 2.281 3.74-2.375 3.887h-4.74l-2.375-3.887zm16.664 0h4.746l1.092 1.791 1.283 2.096-2.377 3.887H72.63l-2.375-3.887zm16.668 0h4.744l1.912 3.133.461.754-2.373 3.887h-4.744l-1.186-1.944-1.19-1.943zM14.297 46.12h4.742l2.373 3.887-2.373 3.887h-4.742l-2.377-3.887zm16.662 0h4.746l2.375 3.887-2.375 3.887H30.96l-2.371-3.887zm16.67 0h4.744l2.373 3.887-2.373 3.887h-4.744l-2.379-3.887Zm16.666 0h4.742l2.375 3.887-2.375 3.887h-4.742l-2.373-3.887 1.185-1.944Zm16.666 0h4.744l2.377 3.887-2.377 3.887h-4.744l-2.375-3.887zm-75 4.545h4.746l2.373 3.887-2.373 3.886H5.961l-2.375-3.886zm16.668 0h4.742l1.41 2.305.965 1.582-2.375 3.886H22.63l-2.375-3.886zm16.666 0h4.742l2.377 3.887-2.377 3.886h-4.742l-2.375-3.886zm16.668 0h4.742l.797 1.309 1.576 2.58-2.373 3.885h-4.742l-2.375-3.887zm16.666 0h4.742l1.352 2.213 1.025 1.674-2.377 3.886H72.63l-2.375-3.886zm16.666 0h4.744l1.406 2.305.967 1.582-2.373 3.886h-4.744l-2.377-3.886zM14.297 55.21h4.742l2.373 3.889-2.373 3.884h-4.742l-2.377-3.884zm16.662 0h4.746l2.375 3.889-2.375 3.884H30.96l-2.371-3.884zm16.67 0h4.744l2.373 3.889-1.51 2.466-.863 1.418h-4.744l-2.379-3.884Zm16.666 0h4.742l2.375 3.889-2.375 3.884h-4.742l-2.373-3.884 1.185-1.944zm16.666 0h4.744l2.377 3.889-2.377 3.884h-4.744l-2.375-3.884zm-75 4.545h4.746l2.314 3.789.06.1-2.374 3.884H5.961l-2.375-3.884zm16.668 0h4.742l2.375 3.889-2.375 3.884H22.63l-2.373-3.884zm16.666 0h4.742l2.377 3.889-2.377 3.884h-4.742l-2.375-3.884zm16.668 0h4.742l.602.984 1.771 2.905-2.373 3.884h-4.742l-2.375-3.884zm16.666 0h4.742l1.139 1.861 1.238 2.028-2.377 3.884H72.63l-2.375-3.884zm16.666 0h4.744l2.373 3.889-2.373 3.884h-4.744l-2.375-3.884zM14.297 64.3h4.744l2.371 3.886-2.371 3.885h-4.744l-2.377-3.885Zm16.662 0h4.746l2.375 3.886-2.375 3.885H30.96l-2.371-3.885 1.183-1.943Zm16.67 0h4.744l2.373 3.886-2.066 3.385-.307.5h-4.744l-2.377-3.885 1.19-1.943Zm16.664 0h4.744l2.375 3.886-2.375 3.885h-4.744l-.264-.433-2.105-3.451Zm16.668 0h4.744l2.377 3.886-2.377 3.885h-4.744l-2.375-3.885zm-75 4.547h4.746l2.373 3.884-2.373 3.887H5.961l-2.375-3.887zm16.668 0h4.742l2.375 3.884-2.375 3.887H22.63l-2.373-3.887zm16.666 0h4.742l2.377 3.884-.871 1.426-1.506 2.461h-4.742l-2.375-3.887zm16.668 0h4.742l.133.218 2.24 3.666-2.373 3.887h-4.742l-2.375-3.887zm16.666 0h4.742l1.346 2.2 1.031 1.684-2.377 3.887H72.63l-2.375-3.887zm16.666 0h4.744l2.373 3.884-2.373 3.887h-4.744l-2.375-3.887zm-74.998 4.545h4.744l2.371 3.884-2.373 3.887h-4.742l-2.377-3.887.654-1.07zm16.662 0h4.746l2.375 3.884-2.375 3.887H30.96l-2.371-3.887zm16.67 0h4.744l2.373 3.884-2.373 3.887h-4.744l-2.377-3.887zm16.664 0h4.744l2.375 3.884-2.375 3.887h-4.742l-2.371-3.887zm16.668 0h4.744l2.377 3.884-2.377 3.887h-4.744l-2.375-3.887.656-1.07zm-75 4.544h4.746l.094.153 2.28 3.732-2.374 3.887H5.961l-2.375-3.887zm16.668 0h4.742l1.914 3.133.461.752-2.375 3.887H22.63l-2.375-3.887zm16.666 0h4.742l2.377 3.885-2.377 3.887h-4.742l-2.375-3.887zm16.668 0h4.742l.092.145 2.281 3.74-2.375 3.887h-4.74l-2.375-3.887zm16.666 0h4.742l1.094 1.79 1.283 2.095-2.377 3.887H72.63l-2.375-3.887zm16.666 0h4.744l1.912 3.133.461.752-2.373 3.887h-4.744l-2.377-3.887zm-74.998 4.545h4.742l2.373 3.885-2.373 3.887h-4.742l-2.377-3.887zm16.662 0h4.746l2.375 3.885-2.375 3.887H30.96l-2.371-3.887zm16.67 0h4.744l2.373 3.885-2.373 3.887h-4.744l-2.377-3.887zm16.666 0h4.742l2.375 3.885-2.375 3.887h-4.742l-2.373-3.887zm16.666 0h4.744l2.377 3.885-2.377 3.887h-4.744l-2.375-3.887zm-75 4.545h4.746l.094.155 2.28 3.732-.518.846-1.856 3.039H5.961l-2.375-3.885 1.187-1.943zm16.668 0h4.742l1.914 3.133.461.754-.312.512-2.063 3.373H22.63l-2.373-3.885 1.185-1.943zm16.666 0h4.742l2.377 3.887L44.04 94.8h-4.746l-1.186-1.944-1.187-1.94zm16.668 0h4.742l.092.147 2.281 3.74-2.375 3.885h-4.74l-2.375-3.885zm16.666 0h4.742l1.094 1.79 1.283 2.097-2.377 3.885h-4.744l-2.373-3.885zm16.666 0h4.744l1.912 3.133.461.754-.31.512-2.063 3.373h-4.744l-2.375-3.885 1.19-1.943zm-74.998 4.545h4.742l1.504 2.457.87 1.43-2.374 3.885h-4.742l-2.377-3.885zm16.662 0h4.746l.244.4 2.131 3.487-2.375 3.885H30.96l-2.371-3.885zm16.67 0h4.744l2.373 3.885-2.373 3.887h-4.744l-2.377-3.885zm16.666 0h4.742l2.375 3.885v.002l-2.375 3.885h-4.742l-2.373-3.885zm16.666 0h4.744l.475.782 1.902 3.105-2.377 3.885h-4.744l-2.375-3.885z"/></svg>