<svg xml:space="preserve" width="100" height="100" xmlns="http://www.w3.org/2000/svg"><path d="M1.873 0 .749.655v14.83L13.474 8.07V0h-1.249v7.343l-10.227 5.96v-1.64l8.894-5.097L10.845 0H9.596l.042 5.835-7.64 4.378V8.565l6.221-3.557L8.18 0H6.93l.035 4.277-4.966 2.84v-1.65l3.543-2.02L5.51 0Zm13.224 0v8.07l12.725 7.416V.655L26.698 0h-3.635l-.033 3.448 3.544 2.02v1.648l-4.967-2.84L21.642 0h-1.249l-.04 5.008 6.22 3.557v1.648l-7.639-4.378L18.975 0h-1.249l-.046 6.566 8.894 5.097v1.64l-10.228-5.96V0Zm15.348 0L29.32.655v14.83L42.046 8.07V0h-1.25v7.343l-10.226 5.96v-1.64l8.894-5.097L39.417 0h-1.25l.042 5.835-7.64 4.378V8.565l6.222-3.557L36.75 0H35.5l.035 4.277-4.966 2.84v-1.65l3.543-2.02L34.08 0Zm13.224 0v8.07l12.725 7.416V.655L55.27 0h-3.636l-.032 3.448 3.543 2.02v1.648l-4.966-2.84L50.214 0h-1.25l-.04 5.008 6.221 3.557v1.648l-7.64-4.378L47.548 0h-1.249l-.047 6.566 8.894 5.097v1.64l-10.227-5.96V0Zm15.347 0-1.124.655v14.83L70.617 8.07V0h-1.249v7.343l-10.227 5.96v-1.64l8.894-5.097L67.988 0H66.74l.042 5.835-7.64 4.378V8.565l6.221-3.557L65.322 0h-1.25l.035 4.277-4.966 2.84v-1.65l3.544-2.02L62.652 0Zm13.225 0v8.07l12.725 7.416V.655L83.842 0h-3.636l-.033 3.448 3.544 2.02v1.648l-4.967-2.84L78.785 0h-1.249l-.04 5.008 6.22 3.557v1.648l-7.639-4.378L76.119 0h-1.25l-.046 6.566 8.894 5.097v1.64L73.49 7.343V0Zm15.347 0-1.124.655v14.83L99.189 8.07V0h-1.25v7.343l-10.226 5.96v-1.64l8.894-5.097L96.56 0h-1.25l.042 5.835-7.64 4.378V8.565l6.22-3.557L93.893 0h-1.25l.036 4.277-4.966 2.84v-1.65l3.543-2.02L91.223 0ZM4.26.064l.026 2.652L1.998 4.02V1.383Zm20.05 0 2.264 1.319V4.02l-2.288-1.304Zm8.522 0 .025 2.652L30.57 4.02V1.383Zm20.05 0 2.263 1.319V4.02l-2.288-1.304zm8.522 0 .025 2.652L59.14 4.02V1.383Zm20.05 0 2.263 1.319V4.02l-2.288-1.304Zm8.52 0L90 2.716 87.713 4.02V1.383Zm-75.688 9.45L1.56 16.93l12.725 7.415L27.01 16.93Zm28.571 0L30.132 16.93l12.725 7.415 12.725-7.415zm28.572 0L58.704 16.93l12.725 7.415 12.725-7.415zm28.571 0L87.276 16.93 100 24.345V22.89l-2.262-1.318L100 20.224V18.76l-3.503 2.088-1.416-.825L100 17.102v-1.463l-6.162 3.66-1.414-.825L100 13.986v-1.462l-8.82 5.226-1.406-.82L100 10.97ZM14.286 10.97l10.227 5.96-1.407.82-8.82-5.226-8.82 5.226-1.407-.82Zm28.571 0 10.227 5.96-1.406.82-8.82-5.226-8.821 5.226-1.407-.82zm28.572 0 10.227 5.96-1.407.82-8.82-5.226-8.82 5.226-1.407-.82zm-57.143 3.016 7.576 4.488-1.414.825-6.162-3.66-6.162 3.66-1.415-.825Zm28.571 0 7.577 4.488-1.414.825-6.163-3.66-6.162 3.66-1.414-.825zm28.572 0 7.576 4.488-1.413.825-6.163-3.66-6.163 3.66-1.414-.825zM14.286 17.1l4.919 2.922-1.415.825-3.504-2.088-3.505 2.088-1.415-.825zm28.571 0 4.92 2.922-1.415.825-3.505-2.088-3.504 2.088-1.415-.825zm28.572 0 4.92 2.922-1.416.825-3.504-2.088-3.505 2.088-1.414-.825zM.812 18.24v14.83l12.725 7.416V25.655Zm26.948 0-12.725 7.416v14.83L27.76 33.07zm1.623 0v14.83l12.725 7.416V25.655Zm26.948 0-12.725 7.416v14.83l12.725-7.415zm1.624 0v14.83l12.725 7.416V25.655Zm26.948 0-12.725 7.416v14.83l12.725-7.415zm1.624 0v14.83l12.724 7.416V25.655Zm-72.241 1.984 2.262 1.348-2.262 1.319-2.263-1.319zm28.571 0 2.263 1.348-2.263 1.319-2.262-1.319zm28.572 0 2.262 1.348-2.262 1.319-2.262-1.319zm-69.368.2 1.406.82-.073 10.323 8.894 5.097v1.64L2.06 32.342Zm24.45 0v11.92l-10.227 5.96v-1.64l8.894-5.097-.074-10.323zm4.121 0 1.407.82-.074 10.323 8.894 5.097v1.64l-10.227-5.96Zm24.45 0v11.92l-10.227 5.96v-1.64l8.894-5.097-.073-10.323zm4.122 0 1.407.82-.074 10.323 8.894 5.097v1.64l-10.227-5.96Zm24.45 0v11.92l-10.227 5.96v-1.64l8.894-5.097-.074-10.323zm4.122 0 1.406.82-.073 10.323 8.894 5.097v1.64l-10.227-5.96ZM4.71 21.967l1.415.825-.06 7.216 6.222 3.557v1.648l-7.64-4.378Zm19.15 0 .062 8.868-7.64 4.378v-1.648l6.222-3.557-.059-7.216zm9.422 0 1.414.825-.059 7.216 6.221 3.557v1.648l-7.64-4.378zm19.149 0 .063 8.868-7.64 4.378v-1.648l6.221-3.557-.058-7.216zm9.422 0 1.415.825-.06 7.216 6.222 3.557v1.648l-7.64-4.378zm19.15 0 .063 8.868-7.64 4.378v-1.648l6.221-3.557-.059-7.216zm9.422 0 1.414.825-.058 7.216 6.22 3.557v1.648l-7.64-4.378zM7.369 23.516l1.415.824-.04 4.108 3.544 2.02v1.648l-4.967-2.84zm13.834 0 .047 5.76-4.966 2.84v-1.649l3.543-2.02-.039-4.107zm14.737 0 1.415.824-.04 4.108 3.544 2.02v1.648l-4.966-2.84zm13.835 0 .047 5.76-4.967 2.84v-1.649l3.544-2.02-.04-4.107zm14.737 0 1.415.824-.04 4.108 3.544 2.02v1.648l-4.966-2.84zm13.834 0 .047 5.76-4.966 2.84v-1.649l3.543-2.02-.039-4.107zm14.737 0 1.416.824-.04 4.108 3.544 2.02v1.648l-4.967-2.84zm-83.058 1.548 2.263 1.319v2.636L10 27.716zm8.521 0 .026 2.652-2.288 1.303v-2.636zm20.05 0 2.263 1.319v2.636l-2.287-1.303zm8.522 0 .025 2.652-2.288 1.303v-2.636zm20.05 0 2.263 1.319v2.636l-2.288-1.303zm8.521 0 .026 2.652-2.288 1.303v-2.636zm20.051 0 2.263 1.319v2.636l-2.288-1.303ZM0 34.514v1.456l10.227 5.96-1.407.82L0 37.524v1.462l7.577 4.488-1.415.824L0 40.638v1.463l4.92 2.922-1.416.824L0 43.76v1.463l2.262 1.348L0 47.89v1.455l12.725-7.415zm28.571 0L15.847 41.93l12.724 7.415 12.726-7.415-12.725-7.416zm28.572 0L44.418 41.93l12.725 7.415 12.725-7.415-12.725-7.416zm28.572 0L72.99 41.93l12.725 7.415L98.44 41.93l-12.725-7.416zM28.57 35.97l10.23 5.96-1.407.82-8.82-5.226-8.82 5.226-1.407-.82zm28.572 0 10.227 5.96-1.406.82-8.82-5.226h-.001l-8.82 5.226-1.407-.82Zm28.572 0 10.227 5.96-1.407.82-8.82-5.226-8.82 5.226-1.407-.82zM28.57 38.986l7.577 4.488-1.414.824-6.162-3.66-6.163 3.66-1.414-.824zm28.572 0 7.577 4.488-1.414.824-6.163-3.66-6.162 3.66-1.414-.824Zm28.572 0 7.576 4.488-1.414.824-6.162-3.66-6.163 3.66-1.414-.824zM28.57 42.1l4.92 2.922-1.415.824-3.504-2.087-3.505 2.087-1.415-.824zm28.572 0 4.92 2.922-1.415.824-3.505-2.087-3.504 2.087-1.415-.824zm28.572 0 4.92 2.922-1.416.824-3.504-2.087-3.505 2.087-1.414-.824zm-72.24 1.14L1.873 50l-1.124.655v14.83l12.725-7.415zm1.623 0v14.83l12.725 7.416v-14.83L26.7 50zm26.949 0L30.444 50l-1.123.655v14.83l12.725-7.415zm1.623 0v14.83l12.725 7.416v-14.83L55.27 50zm26.948 0L59.016 50l-1.124.655v14.83l12.725-7.415zm1.624 0v14.83l12.725 7.416v-14.83L83.842 50zm26.948 0L87.587 50l-1.123.655v14.83l12.725-7.415zm-70.618 1.984 2.263 1.348-2.262 1.319-2.263-1.319Zm28.572 0 2.263 1.348-2.263 1.319-2.262-1.319Zm28.572 0 2.262 1.348-2.262 1.319-2.263-1.319Zm-73.49.2v11.92l-10.227 5.96v-1.64l8.894-5.098L10.845 50l-.027-3.757zm4.121 0 1.407.82L17.726 50l-.046 6.565 8.894 5.098v1.64l-10.228-5.96V50zm24.45 0v11.92l-10.226 5.96v-1.64l8.894-5.098L39.417 50l-.027-3.757zm4.122 0 1.406.82L46.298 50l-.047 6.565 8.894 5.098v1.64l-10.227-5.96V50zm24.45 0v11.92l-10.227 5.96v-1.64l8.894-5.098L67.988 50l-.027-3.757zm4.122 0 1.406.82L74.87 50l-.047 6.565 8.894 5.098v1.64l-10.227-5.96V50zm24.45 0v11.92l-10.227 5.96v-1.64l8.894-5.098L96.56 50l-.027-3.757zm-78.943 1.544 1.414.825L20.393 50l-.04 5.008 6.22 3.557v1.648l-7.639-4.378.041-5.835zm28.572 0 1.414.825L48.965 50l-.041 5.008 6.221 3.557v1.648l-7.64-4.378.042-5.835zm28.571 0 1.414.825L77.536 50l-.04 5.008 6.22 3.557v1.648l-7.639-4.378.042-5.835zm-66.565 0L9.596 50l.042 5.835-7.64 4.379v-1.65l6.221-3.556L8.18 50l-.019-2.208zm28.571 0L38.168 50l.041 5.835-7.64 4.379v-1.65l6.222-3.556L36.75 50l-.018-2.208zm28.572 0L66.739 50l.042 5.835-7.64 4.379v-1.65l6.221-3.556-.04-5.008-.018-2.208zm28.571 0L95.311 50l.042 5.835-7.64 4.379v-1.65l6.22-3.556-.04-5.008-.018-2.208zM6.917 48.516 6.93 50l.035 4.277-4.966 2.84v-1.65l3.543-2.02L5.51 50l-.007-.66zm14.737 0 1.415.824-.006.66-.033 3.448 3.544 2.02v1.648l-4.967-2.84.035-4.276zm13.835 0L35.5 50l.035 4.277-4.966 2.84v-1.65l3.543-2.02L34.08 50l-.006-.66zm14.737 0 1.415.824-.007.66-.033 3.448 3.544 2.02v1.648l-4.966-2.84.035-4.276zm13.834 0L64.073 50l.034 4.277-4.966 2.84v-1.65l3.544-2.02L62.652 50l-.007-.66zm14.737 0 1.415.824-.006.66-.033 3.448 3.544 2.02v1.648l-4.967-2.84.035-4.276zm13.835 0L92.643 50l.036 4.277-4.966 2.84v-1.65l3.543-2.02L91.223 50l-.006-.66zM4.26 50.064l.026 2.652-2.288 1.304v-2.637zm20.05 0 2.264 1.319v2.637l-2.288-1.304zm8.522 0 .025 2.652-2.287 1.304v-2.637zm20.05 0 2.263 1.319v2.637l-2.288-1.304zm8.522 0 .025 2.652-2.288 1.304v-2.637zm20.05 0 2.263 1.319v2.637l-2.288-1.304zm8.52 0L90 52.716l-2.287 1.304v-2.637Zm-75.688 9.45L1.56 66.93l12.725 7.415L27.01 66.93Zm28.571 0L30.132 66.93l12.725 7.415 12.725-7.415zm28.572 0L58.704 66.93l12.725 7.415 12.725-7.415zm28.571 0L87.276 66.93 100 74.345v-1.456l-2.262-1.318L100 70.224V68.76l-3.503 2.087-1.416-.824L100 67.102v-1.463l-6.162 3.66-1.414-.824L100 63.986v-1.462l-8.82 5.226-1.406-.82L100 60.97ZM14.286 60.97l10.227 5.96-1.407.82-8.82-5.226-8.82 5.226-1.407-.82zm28.571 0 10.227 5.96-1.406.82-8.82-5.226-8.821 5.226-1.407-.82zm28.572 0 10.227 5.96-1.407.82-8.82-5.226-8.82 5.226-1.407-.82zm-57.143 3.016 7.576 4.489-1.414.824-6.162-3.66-6.162 3.66-1.415-.824Zm28.571 0 7.577 4.489-1.414.824-6.163-3.66-6.162 3.66-1.414-.824zm28.572 0 7.576 4.489-1.413.824-6.163-3.66-6.163 3.66-1.414-.824zm-57.143 3.116 4.919 2.921-1.415.824-3.504-2.087-3.505 2.087-1.415-.824zm28.571 0 4.92 2.921-1.415.824-3.505-2.087-3.504 2.087-1.415-.824zm28.572 0 4.92 2.921-1.416.824-3.504-2.087-3.505 2.087-1.414-.824zM.812 68.24v14.83l12.725 7.416v-14.83Zm26.948 0-12.725 7.415v14.83l12.725-7.414zm1.623 0v14.83l12.725 7.416v-14.83Zm26.948 0-12.725 7.415v14.83l12.725-7.414zm1.624 0v14.83l12.725 7.416v-14.83Zm26.948 0-12.725 7.415v14.83l12.725-7.414zm1.624 0v14.83l12.724 7.416v-14.83Zm-72.241 1.983 2.262 1.348-2.262 1.319-2.263-1.319zm28.571 0 2.263 1.348-2.263 1.319-2.262-1.319zm28.572 0 2.262 1.348-2.262 1.319-2.262-1.319zm-69.368.2 1.406.82-.073 10.323 8.894 5.097v1.64L2.06 82.343Zm24.45 0v11.92l-10.227 5.96v-1.64l8.894-5.097-.074-10.323zm4.121 0 1.407.82-.074 10.323 8.894 5.097v1.64l-10.227-5.96Zm24.45 0v11.92l-10.227 5.96v-1.64l8.894-5.097-.073-10.323zm4.122 0 1.407.82-.074 10.323 8.894 5.097v1.64l-10.227-5.96Zm24.45 0v11.92l-10.227 5.96v-1.64l8.894-5.097-.074-10.323zm4.122 0 1.406.82-.073 10.323 8.894 5.097v1.64l-10.227-5.96ZM4.71 71.967l1.415.824-.06 7.217 6.222 3.557v1.648l-7.64-4.378Zm19.15 0 .062 8.868-7.64 4.378v-1.648l6.222-3.557-.059-7.216zm9.422 0 1.414.824-.059 7.217 6.221 3.557v1.648l-7.64-4.378zm19.149 0 .063 8.868-7.64 4.378v-1.648l6.221-3.557-.058-7.216zm9.422 0 1.415.824-.06 7.217 6.222 3.557v1.648l-7.64-4.378zm19.15 0 .063 8.868-7.64 4.378v-1.648l6.221-3.557-.059-7.216zm9.422 0 1.414.824-.058 7.217 6.22 3.557v1.648l-7.64-4.378zm-83.057 1.55 1.415.824-.04 4.107 3.544 2.02v1.648l-4.967-2.84zm13.834 0 .047 5.76-4.966 2.84v-1.65l3.543-2.02-.039-4.106zm14.737 0 1.415.824-.04 4.107 3.544 2.02v1.648l-4.966-2.84zm13.835 0 .047 5.76-4.967 2.84v-1.65l3.544-2.02-.04-4.106zm14.737 0 1.415.824-.04 4.107 3.544 2.02v1.648l-4.966-2.84zm13.834 0 .047 5.76-4.966 2.84v-1.65l3.543-2.02-.039-4.106zm14.737 0 1.416.824-.04 4.107 3.544 2.02v1.648l-4.967-2.84zm-83.058 1.548 2.263 1.318v2.637L10 77.716zm8.521 0 .026 2.651-2.288 1.304v-2.637zm20.05 0 2.263 1.318v2.637l-2.287-1.304zm8.522 0 .025 2.651-2.288 1.304v-2.637zm20.05 0 2.263 1.318v2.637l-2.288-1.304zm8.521 0 .026 2.651-2.288 1.304v-2.637zm20.051 0 2.263 1.318v2.637l-2.288-1.304ZM0 84.515v1.455l10.227 5.96-1.407.82L0 87.524v1.462l7.577 4.488-1.415.825L0 90.639V92.1l4.92 2.922-1.416.824L0 93.76v1.463l2.262 1.348L0 97.89v1.455l12.725-7.415zm28.571 0L15.847 91.93l12.724 7.415 12.726-7.415-12.725-7.416Zm28.572 0L44.418 91.93l12.725 7.415 12.725-7.415-12.725-7.416Zm28.572 0L72.99 91.93l12.725 7.415L98.44 91.93l-12.725-7.416zM28.57 85.97l10.23 5.96-1.407.82-8.82-5.226-8.82 5.226-1.408-.82zm28.572 0 10.227 5.96-1.406.82-8.82-5.226h-.001l-8.82 5.226-1.407-.82zm28.572 0 10.226 5.96-1.406.82-8.82-5.226-8.82 5.226-1.408-.82zM28.57 88.986l7.577 4.488-1.414.825-6.162-3.66-6.163 3.66-1.414-.825zm28.572 0 7.577 4.488-1.415.825-6.162-3.66-6.162 3.66-1.415-.825zm28.572 0 7.576 4.488-1.414.825-6.162-3.66-6.163 3.66-1.414-.825zM28.57 92.1l4.92 2.922-1.415.824-3.504-2.087-3.505 2.087-1.415-.824zm28.572 0 4.92 2.922-1.416.824-3.504-2.087-3.504 2.087-1.415-.824zm28.572 0 4.92 2.922-1.416.824-3.504-2.087-3.505 2.087-1.414-.824zm-72.24 1.14L1.873 100h3.636l-.007-.66 1.415-.824L6.93 100h1.25l-.019-2.209 1.415-.823.021 3.032h1.25l-.028-3.757 1.407-.82V100h1.249zm1.623 0V100h1.25v-4.577l1.406.82-.027 3.757h1.25l.021-3.033 1.414.825-.018 2.208h1.25l.011-1.484 1.415.824-.006.66h3.635zm26.949 0L30.444 100h3.636l-.006-.66 1.415-.824L35.5 100h1.249l-.018-2.209 1.414-.823.022 3.032h1.249l-.027-3.757 1.407-.82V100h1.249zm1.623 0V100h1.249v-4.577l1.407.82-.027 3.757h1.25l.02-3.033 1.415.825-.018 2.208h1.249l.012-1.484 1.415.824-.007.66h3.636zm26.948 0L59.016 100h3.636l-.007-.66 1.415-.824.012 1.484h1.25l-.019-2.209 1.415-.823.021 3.032h1.25l-.028-3.757 1.407-.82V100h1.249zm1.624 0V100h1.249v-4.577l1.406.82L74.87 100h1.249l.021-3.033 1.414.825-.018 2.208h1.25l.011-1.484 1.415.824-.006.66h3.636zm26.948 0L87.587 100h3.636l-.006-.66 1.416-.824.01 1.484h1.25l-.018-2.209 1.414-.823.022 3.032h1.249l-.027-3.757 1.406-.82V100h1.25zm-70.618 1.984 2.263 1.348-2.262 1.319-2.263-1.319Zm28.572 0 2.263 1.348-2.263 1.319-2.262-1.319Zm28.572 0 2.262 1.348-2.262 1.319-2.263-1.319z" fill="#201729"/></svg>