<svg width="100" height="100" xmlns="http://www.w3.org/2000/svg"><path d="M2.5 0v2.5H0v1h2.5v4H0V8h2.5v4.5H0v.5h2.5v4.5H0v.5h2.5v4.5H0v.5h2.5v4.5H0v.5h2.5v4.5H0v.5h2.5v4.5H0v.5h2.5v4.5H0v.5h2.5v4.5H0v.5h2.5v4.5H0v1h2.5v4H0v.5h2.5v4.5H0v.5h2.5v4.5H0v.5h2.5v4.5H0v.5h2.5v4.5H0v.5h2.5v4.5H0v.5h2.5v4.5H0v.5h2.5v4.5H0v.5h2.5v4.5H0v.5h2.5v2h1v-2h4v2H8v-2h4.5v2h.5v-2h4.5v2h.5v-2h4.5v2h.5v-2h4.5v2h.5v-2h4.5v2h.5v-2h4.5v2h.5v-2h4.5v2h.5v-2h4.5v2h.5v-2h4.5v2h1v-2h4v2h.5v-2h4.5v2h.5v-2h4.5v2h.5v-2h4.5v2h.5v-2h4.5v2h.5v-2h4.5v2h.5v-2h4.5v2h.5v-2h4.5v2h.5v-2h4.5v2h.5v-2h2v-.5h-2V93h2v-.5h-2V88h2v-.5h-2V83h2v-.5h-2V78h2v-.5h-2V73h2v-.5h-2V68h2v-.5h-2V63h2v-.5h-2V58h2v-.5h-2v-4h2v-1h-2V48h2v-.5h-2V43h2v-.5h-2V38h2v-.5h-2V33h2v-.5h-2V28h2v-.5h-2V23h2v-.5h-2V18h2v-.5h-2V13h2v-.5h-2V8h2v-.5h-2v-4h2v-1h-2V0h-.5v2.5H93V0h-.5v2.5H88V0h-.5v2.5H83V0h-.5v2.5H78V0h-.5v2.5H73V0h-.5v2.5H68V0h-.5v2.5H63V0h-.5v2.5H58V0h-.5v2.5h-4V0h-1v2.5H48V0h-.5v2.5H43V0h-.5v2.5H38V0h-.5v2.5H33V0h-.5v2.5H28V0h-.5v2.5H23V0h-.5v2.5H18V0h-.5v2.5H13V0h-.5v2.5H8V0h-.5v2.5h-4V0Zm1 3.5h4v4h-4zm4.5 0h4.5v4H8Zm5 0h4.5v4H13Zm5 0h4.5v4H18Zm5 0h4.5v4H23Zm5 0h4.5v4H28Zm5 0h4.5v4H33Zm5 0h4.5v4H38Zm5 0h4.5v4H43Zm5 0h4.5v4H48Zm5.5 0h4v4h-4zm4.5 0h4.5v4H58Zm5 0h4.5v4H63Zm5 0h4.5v4H68Zm5 0h4.5v4H73Zm5 0h4.5v4H78Zm5 0h4.5v4H83Zm5 0h4.5v4H88Zm5 0h4.5v4H93ZM3.5 8h4v4.5h-4zM8 8h4.5v4.5H8Zm5 0h4.5v4.5H13Zm5 0h4.5v4.5H18Zm5 0h4.5v4.5H23Zm5 0h4.5v4.5H28Zm5 0h4.5v4.5H33Zm5 0h4.5v4.5H38Zm5 0h4.5v4.5H43Zm5 0h4.5v4.5H48Zm5.5 0h4v4.5h-4zM58 8h4.5v4.5H58Zm5 0h4.5v4.5H63Zm5 0h4.5v4.5H68Zm5 0h4.5v4.5H73Zm5 0h4.5v4.5H78Zm5 0h4.5v4.5H83Zm5 0h4.5v4.5H88Zm5 0h4.5v4.5H93ZM3.5 13h4v4.5h-4zM8 13h4.5v4.5H8Zm5 0h4.5v4.5H13Zm5 0h4.5v4.5H18Zm5 0h4.5v4.5H23Zm5 0h4.5v4.5H28Zm5 0h4.5v4.5H33Zm5 0h4.5v4.5H38Zm5 0h4.5v4.5H43Zm5 0h4.5v4.5H48Zm5.5 0h4v4.5h-4zm4.5 0h4.5v4.5H58Zm5 0h4.5v4.5H63Zm5 0h4.5v4.5H68Zm5 0h4.5v4.5H73Zm5 0h4.5v4.5H78Zm5 0h4.5v4.5H83Zm5 0h4.5v4.5H88Zm5 0h4.5v4.5H93ZM3.5 18h4v4.5h-4zM8 18h4.5v4.5H8Zm5 0h4.5v4.5H13Zm5 0h4.5v4.5H18Zm5 0h4.5v4.5H23Zm5 0h4.5v4.5H28Zm5 0h4.5v4.5H33Zm5 0h4.5v4.5H38Zm5 0h4.5v4.5H43Zm5 0h4.5v4.5H48Zm5.5 0h4v4.5h-4zm4.5 0h4.5v4.5H58Zm5 0h4.5v4.5H63Zm5 0h4.5v4.5H68Zm5 0h4.5v4.5H73Zm5 0h4.5v4.5H78Zm5 0h4.5v4.5H83Zm5 0h4.5v4.5H88Zm5 0h4.5v4.5H93ZM3.5 23h4v4.5h-4zM8 23h4.5v4.5H8Zm5 0h4.5v4.5H13Zm5 0h4.5v4.5H18Zm5 0h4.5v4.5H23Zm5 0h4.5v4.5H28Zm5 0h4.5v4.5H33Zm5 0h4.5v4.5H38Zm5 0h4.5v4.5H43Zm5 0h4.5v4.5H48Zm5.5 0h4v4.5h-4zm4.5 0h4.5v4.5H58Zm5 0h4.5v4.5H63Zm5 0h4.5v4.5H68Zm5 0h4.5v4.5H73Zm5 0h4.5v4.5H78Zm5 0h4.5v4.5H83Zm5 0h4.5v4.5H88Zm5 0h4.5v4.5H93ZM3.5 28h4v4.5h-4zM8 28h4.5v4.5H8Zm5 0h4.5v4.5H13Zm5 0h4.5v4.5H18Zm5 0h4.5v4.5H23Zm5 0h4.5v4.5H28Zm5 0h4.5v4.5H33Zm5 0h4.5v4.5H38Zm5 0h4.5v4.5H43Zm5 0h4.5v4.5H48Zm5.5 0h4v4.5h-4zm4.5 0h4.5v4.5H58Zm5 0h4.5v4.5H63Zm5 0h4.5v4.5H68Zm5 0h4.5v4.5H73Zm5 0h4.5v4.5H78Zm5 0h4.5v4.5H83Zm5 0h4.5v4.5H88Zm5 0h4.5v4.5H93ZM3.5 33h4v4.5h-4zM8 33h4.5v4.5H8Zm5 0h4.5v4.5H13Zm5 0h4.5v4.5H18Zm5 0h4.5v4.5H23Zm5 0h4.5v4.5H28Zm5 0h4.5v4.5H33Zm5 0h4.5v4.5H38Zm5 0h4.5v4.5H43Zm5 0h4.5v4.5H48Zm5.5 0h4v4.5h-4zm4.5 0h4.5v4.5H58Zm5 0h4.5v4.5H63Zm5 0h4.5v4.5H68Zm5 0h4.5v4.5H73Zm5 0h4.5v4.5H78Zm5 0h4.5v4.5H83Zm5 0h4.5v4.5H88Zm5 0h4.5v4.5H93ZM3.5 38h4v4.5h-4zM8 38h4.5v4.5H8Zm5 0h4.5v4.5H13Zm5 0h4.5v4.5H18Zm5 0h4.5v4.5H23Zm5 0h4.5v4.5H28Zm5 0h4.5v4.5H33Zm5 0h4.5v4.5H38Zm5 0h4.5v4.5H43Zm5 0h4.5v4.5H48Zm5.5 0h4v4.5h-4zm4.5 0h4.5v4.5H58Zm5 0h4.5v4.5H63Zm5 0h4.5v4.5H68Zm5 0h4.5v4.5H73Zm5 0h4.5v4.5H78Zm5 0h4.5v4.5H83Zm5 0h4.5v4.5H88Zm5 0h4.5v4.5H93ZM3.5 43h4v4.5h-4zM8 43h4.5v4.5H8Zm5 0h4.5v4.5H13Zm5 0h4.5v4.5H18Zm5 0h4.5v4.5H23Zm5 0h4.5v4.5H28Zm5 0h4.5v4.5H33Zm5 0h4.5v4.5H38Zm5 0h4.5v4.5H43Zm5 0h4.5v4.5H48Zm5.5 0h4v4.5h-4zm4.5 0h4.5v4.5H58Zm5 0h4.5v4.5H63Zm5 0h4.5v4.5H68Zm5 0h4.5v4.5H73Zm5 0h4.5v4.5H78Zm5 0h4.5v4.5H83Zm5 0h4.5v4.5H88Zm5 0h4.5v4.5H93ZM3.5 48h4v4.5h-4V50ZM8 48h4.5v4.5H8V50Zm5 0h4.5v4.5H13V50Zm5 0h4.5v4.5H18V50Zm5 0h4.5v4.5H23V50Zm5 0h4.5v4.5H28V50Zm5 0h4.5v4.5H33V50Zm5 0h4.5v4.5H38V50Zm5 0h4.5v4.5H43V50Zm5 0h4.5v4.5H48V50Zm5.5 0h4v4.5h-4V50Zm4.5 0h4.5v4.5H58V50Zm5 0h4.5v4.5H63V50Zm5 0h4.5v4.5H68V50Zm5 0h4.5v4.5H73V50Zm5 0h4.5v4.5H78V50Zm5 0h4.5v4.5H83V50Zm5 0h4.5v4.5H88V50Zm5 0h4.5v4.5H93V50ZM3.5 53.5h4v4h-4zm4.5 0h4.5v4H8Zm5 0h4.5v4H13Zm5 0h4.5v4H18Zm5 0h4.5v4H23Zm5 0h4.5v4H28Zm5 0h4.5v4H33Zm5 0h4.5v4H38Zm5 0h4.5v4H43Zm5 0h4.5v4H48Zm5.5 0h4v4h-4zm4.5 0h4.5v4H58Zm5 0h4.5v4H63Zm5 0h4.5v4H68Zm5 0h4.5v4H73Zm5 0h4.5v4H78Zm5 0h4.5v4H83Zm5 0h4.5v4H88Zm5 0h4.5v4H93ZM3.5 58h4v4.5h-4zM8 58h4.5v4.5H8Zm5 0h4.5v4.5H13Zm5 0h4.5v4.5H18Zm5 0h4.5v4.5H23Zm5 0h4.5v4.5H28Zm5 0h4.5v4.5H33Zm5 0h4.5v4.5H38Zm5 0h4.5v4.5H43Zm5 0h4.5v4.5H48Zm5.5 0h4v4.5h-4zm4.5 0h4.5v4.5H58Zm5 0h4.5v4.5H63Zm5 0h4.5v4.5H68Zm5 0h4.5v4.5H73Zm5 0h4.5v4.5H78Zm5 0h4.5v4.5H83Zm5 0h4.5v4.5H88Zm5 0h4.5v4.5H93ZM3.5 63h4v4.5h-4zM8 63h4.5v4.5H8Zm5 0h4.5v4.5H13Zm5 0h4.5v4.5H18Zm5 0h4.5v4.5H23Zm5 0h4.5v4.5H28Zm5 0h4.5v4.5H33Zm5 0h4.5v4.5H38Zm5 0h4.5v4.5H43Zm5 0h4.5v4.5H48Zm5.5 0h4v4.5h-4zm4.5 0h4.5v4.5H58Zm5 0h4.5v4.5H63Zm5 0h4.5v4.5H68Zm5 0h4.5v4.5H73Zm5 0h4.5v4.5H78Zm5 0h4.5v4.5H83Zm5 0h4.5v4.5H88Zm5 0h4.5v4.5H93ZM3.5 68h4v4.5h-4zM8 68h4.5v4.5H8Zm5 0h4.5v4.5H13Zm5 0h4.5v4.5H18Zm5 0h4.5v4.5H23Zm5 0h4.5v4.5H28Zm5 0h4.5v4.5H33Zm5 0h4.5v4.5H38Zm5 0h4.5v4.5H43Zm5 0h4.5v4.5H48Zm5.5 0h4v4.5h-4zm4.5 0h4.5v4.5H58Zm5 0h4.5v4.5H63Zm5 0h4.5v4.5H68Zm5 0h4.5v4.5H73Zm5 0h4.5v4.5H78Zm5 0h4.5v4.5H83Zm5 0h4.5v4.5H88Zm5 0h4.5v4.5H93ZM3.5 73h4v4.5h-4zM8 73h4.5v4.5H8Zm5 0h4.5v4.5H13Zm5 0h4.5v4.5H18Zm5 0h4.5v4.5H23Zm5 0h4.5v4.5H28Zm5 0h4.5v4.5H33Zm5 0h4.5v4.5H38Zm5 0h4.5v4.5H43Zm5 0h4.5v4.5H48Zm5.5 0h4v4.5h-4zm4.5 0h4.5v4.5H58Zm5 0h4.5v4.5H63Zm5 0h4.5v4.5H68Zm5 0h4.5v4.5H73Zm5 0h4.5v4.5H78Zm5 0h4.5v4.5H83Zm5 0h4.5v4.5H88Zm5 0h4.5v4.5H93ZM3.5 78h4v4.5h-4zM8 78h4.5v4.5H8Zm5 0h4.5v4.5H13Zm5 0h4.5v4.5H18Zm5 0h4.5v4.5H23Zm5 0h4.5v4.5H28Zm5 0h4.5v4.5H33Zm5 0h4.5v4.5H38Zm5 0h4.5v4.5H43Zm5 0h4.5v4.5H48Zm5.5 0h4v4.5h-4zm4.5 0h4.5v4.5H58Zm5 0h4.5v4.5H63Zm5 0h4.5v4.5H68Zm5 0h4.5v4.5H73Zm5 0h4.5v4.5H78Zm5 0h4.5v4.5H83Zm5 0h4.5v4.5H88Zm5 0h4.5v4.5H93ZM3.5 83h4v4.5h-4zM8 83h4.5v4.5H8Zm5 0h4.5v4.5H13Zm5 0h4.5v4.5H18Zm5 0h4.5v4.5H23Zm5 0h4.5v4.5H28Zm5 0h4.5v4.5H33Zm5 0h4.5v4.5H38Zm5 0h4.5v4.5H43Zm5 0h4.5v4.5H48Zm5.5 0h4v4.5h-4zm4.5 0h4.5v4.5H58Zm5 0h4.5v4.5H63Zm5 0h4.5v4.5H68Zm5 0h4.5v4.5H73Zm5 0h4.5v4.5H78Zm5 0h4.5v4.5H83Zm5 0h4.5v4.5H88Zm5 0h4.5v4.5H93ZM3.5 88h4v4.5h-4zM8 88h4.5v4.5H8Zm5 0h4.5v4.5H13Zm5 0h4.5v4.5H18Zm5 0h4.5v4.5H23Zm5 0h4.5v4.5H28Zm5 0h4.5v4.5H33Zm5 0h4.5v4.5H38Zm5 0h4.5v4.5H43Zm5 0h4.5v4.5H48Zm5.5 0h4v4.5h-4zm4.5 0h4.5v4.5H58Zm5 0h4.5v4.5H63Zm5 0h4.5v4.5H68Zm5 0h4.5v4.5H73Zm5 0h4.5v4.5H78Zm5 0h4.5v4.5H83Zm5 0h4.5v4.5H88Zm5 0h4.5v4.5H93ZM3.5 93h4v4.5h-4zM8 93h4.5v4.5H8Zm5 0h4.5v4.5H13Zm5 0h4.5v4.5H18Zm5 0h4.5v4.5H23Zm5 0h4.5v4.5H28Zm5 0h4.5v4.5H33Zm5 0h4.5v4.5H38Zm5 0h4.5v4.5H43Zm5 0h4.5v4.5H48Zm5.5 0h4v4.5h-4zm4.5 0h4.5v4.5H58Zm5 0h4.5v4.5H63Zm5 0h4.5v4.5H68Zm5 0h4.5v4.5H73Zm5 0h4.5v4.5H78Zm5 0h4.5v4.5H83Zm5 0h4.5v4.5H88Zm5 0h4.5v4.5H93Z"/></svg>