<svg viewBox="0 0 24 24" xmlns="http://www.w3.org/2000/svg" xml:space="preserve" fill-rule="evenodd" clip-rule="evenodd" stroke-linejoin="round" stroke-miterlimit="2"><path d="M5.309 24H.692l2.309-1.8L5.309 24Zm6.001 0H6.694l2.308-1.8L11.31 24Zm6.002 0h-4.617l2.309-1.8 2.308 1.8Zm6.001 0h-4.616l2.308-1.8 2.308 1.8ZM6.001 20.4l2.155 1.68-2.155 1.68-2.154-1.68 2.154-1.68Zm6.002 0 2.154 1.68-2.154 1.68-2.155-1.68 2.155-1.68Zm6.001 0 2.155 1.68-2.155 1.68-2.154-1.68 2.154-1.68Zm-15.85 1.68L0 23.76V20.4l2.154 1.68ZM24 20.404v3.352l-2.149-1.676L24 20.404ZM9.002 18.84l2.001 1.56-2.001 1.56-2-1.56 2-1.56Zm6.002 0 2 1.56-2 1.56-2.001-1.56 2.001-1.56Zm-12.003 0 2 1.56-2 1.56L1 20.4l2.001-1.56Zm18.004 0 2 1.56-2 1.56-2.001-1.56 2.001-1.56Zm-15.004-1.8 1.847 1.44-1.847 1.44-1.846-1.44 1.846-1.44Zm12.003 0 1.847 1.44-1.847 1.44-1.846-1.44 1.846-1.44Zm-6.001 0 1.846 1.44-1.846 1.44-1.847-1.44 1.847-1.44ZM0 17.04l1.847 1.44L0 19.92v-2.88Zm24 .004v2.872l-1.841-1.436L24 17.044ZM9.002 15.48l1.693 1.32-1.693 1.32-1.693-1.32 1.693-1.32Zm6.002 0 1.692 1.32-1.692 1.32-1.693-1.32 1.693-1.32Zm-12.003 0 1.692 1.32-1.692 1.32-1.693-1.32 1.693-1.32Zm18.004 0 1.693 1.32-1.693 1.32-1.693-1.32 1.693-1.32Zm-3.001-1.8 1.539 1.2-1.539 1.2-1.539-1.2 1.539-1.2Zm-12.003 0 1.539 1.2-1.539 1.2-1.538-1.2 1.538-1.2Zm6.002 0 1.539 1.2-1.539 1.2-1.539-1.2 1.539-1.2Zm-10.464 1.2L0 16.08v-2.4l1.539 1.2ZM24 13.684v2.392l-1.533-1.196L24 13.684Zm-8.996-1.564 1.384 1.08-1.384 1.08-1.385-1.08 1.385-1.08Zm6.001 0 1.385 1.08-1.385 1.08-1.385-1.08 1.385-1.08Zm-12.003 0 1.385 1.08-1.385 1.08-1.385-1.08 1.385-1.08Zm-6.001 0 1.385 1.08-1.385 1.08-1.385-1.08 1.385-1.08Zm9.002-1.8 1.231.96-1.231.96-1.231-.96 1.231-.96ZM0 10.32l1.231.96L0 12.24v-1.92Zm6.001 0 1.231.96-1.231.96-1.231-.96 1.231-.96Zm12.003 0 1.231.96-1.231.96-1.231-.96 1.231-.96Zm5.996.004v1.912l-1.225-.956L24 10.324ZM15.004 8.76l1.077.84-1.077.84-1.078-.84 1.078-.84Zm6.001 0 1.077.84-1.077.84-1.077-.84 1.077-.84Zm-12.003 0 1.077.84-1.077.84-1.077-.84 1.077-.84Zm-6.001 0 1.077.84-1.077.84-1.077-.84 1.077-.84ZM0 6.96l.923.72L0 8.4V6.96Zm12.003 0 .923.72-.923.72-.923-.72.923-.72Zm6.001 0 .924.72-.924.72-.923-.72.923-.72Zm-12.003 0 .924.72-.924.72-.923-.72.923-.72ZM24 6.964v1.432l-.918-.716.918-.716ZM3.001 5.4l.769.6-.769.6-.77-.6.77-.6Zm12.003 0 .769.6-.769.6-.77-.6.77-.6Zm6.001 0 .769.6-.769.6-.769-.6.769-.6Zm-12.003 0 .77.6-.77.6-.769-.6.769-.6Zm9.002-1.8.616.48-.616.48-.615-.48.615-.48Zm-12.003 0 .616.48-.616.48-.615-.48.615-.48Zm6.002 0 .615.48-.615.48-.616-.48.616-.48ZM.616 4.08 0 4.56V3.6l.616.48ZM24 3.604v.952l-.61-.476.61-.476ZM3.001 2.04l.461.36-.461.36-.462-.36.462-.36Zm6.001 0 .462.36-.462.36-.462-.36.462-.36Zm6.002 0 .461.36-.461.36-.462-.36.462-.36Zm6.001 0 .462.36-.462.36-.462-.36.462-.36ZM6.001.24l.308.24-.308.24-.307-.24.307-.24Zm6.002 0 .308.24-.308.24-.308-.24.308-.24Zm6.001 0 .308.24-.308.24-.308-.24.308-.24ZM.308.48 0 .72V.24l.308.24ZM24 .244v.472L23.698.48 24 .244Z"/></svg>