<svg viewBox="0 0 24 24" xmlns="http://www.w3.org/2000/svg" xml:space="preserve" fill-rule="evenodd" clip-rule="evenodd" stroke-linejoin="round" stroke-miterlimit="2"><path d="M24 .411 23.879.29l-1.527 1.528 1.527 1.527.121-.121v.581l-.121-.121-1.527 1.528 1.527 1.527.121-.121V7.2l-.121-.121-1.527 1.527 1.527 1.527.121-.121v.582l-.121-.121L22.352 12l1.527 1.527.121-.121v.582l-.121-.121-1.527 1.527 1.527 1.527L24 16.8v.582l-.121-.121-1.527 1.527 1.527 1.528.121-.121v.581l-.121-.121-1.527 1.527 1.527 1.528.121-.121V24h-.411l.12-.121-1.527-1.527-1.527 1.527.12.121h-.58l.12-.121-1.527-1.527-1.527 1.527.12.121H16.8l.121-.121-1.527-1.527-1.528 1.527.121.121h-.581l.121-.121L12 22.352l-1.528 1.527.121.121h-.581l.121-.121-1.527-1.527-1.528 1.527.121.121h-.581l.121-.121-1.528-1.527-1.527 1.527.121.121h-.581l.121-.121-1.528-1.527L.29 23.879.411 24H0v-.411l.12.121 1.528-1.528L.12 20.655l-.12.12v-.58l.12.121 1.528-1.528L.12 17.261l-.12.12v-.58l.12.12 1.528-1.527L.12 13.867l-.12.12v-.58l.12.12L1.648 12 .12 10.473l-.12.12v-.58l.12.12 1.528-1.527L.12 7.079l-.12.12v-.58l.12.12 1.528-1.527L.12 3.684 0 3.805v-.58l.12.12 1.528-1.527L.12.29 0 .411V0h.411L.29.121l1.527 1.527L3.345.121 3.224 0h.581l-.121.121 1.527 1.527L6.739.121 6.618 0h.581l-.121.121 1.528 1.527L10.133.121 10.012 0h.581l-.121.121L12 1.648 13.527.121 13.406 0h.581l-.121.121 1.528 1.527L16.921.121 16.8 0h.581l-.12.121 1.527 1.527L20.315.121 20.195 0h.58l-.12.121 1.527 1.527L23.709.121 23.589 0H24v.411ZM5.381 22.182l1.527 1.528 1.528-1.528-1.528-1.527-1.527 1.527Zm-3.394 0 1.527 1.528 1.528-1.528-1.528-1.527-1.527 1.527Zm6.788 0 1.528 1.528 1.527-1.528-1.527-1.527-1.528 1.527Zm10.183 0 1.527 1.528 1.527-1.528-1.527-1.527-1.527 1.527Zm-6.789 0 1.528 1.528 1.527-1.528-1.527-1.527-1.528 1.527Zm3.394 0 1.528 1.528 1.527-1.528-1.527-1.527-1.528 1.527ZM.29 20.485l1.527 1.528 1.528-1.528-1.528-1.527L.29 20.485Zm6.788 0 1.528 1.528 1.527-1.528-1.527-1.527-1.528 1.527Zm-3.394 0 1.527 1.528 1.528-1.528-1.528-1.527-1.527 1.527Zm13.577 0 1.527 1.528 1.527-1.528-1.527-1.527-1.527 1.527Zm-3.395 0 1.528 1.528 1.527-1.528-1.527-1.527-1.528 1.527Zm6.789 0 1.527 1.528 1.527-1.528-1.527-1.527-1.527 1.527Zm-10.183 0L12 22.013l1.527-1.528L12 18.958l-1.528 1.527Zm-8.485-1.697 1.527 1.528 1.528-1.528-1.528-1.527-1.527 1.527Zm6.788 0 1.528 1.528 1.527-1.528-1.527-1.527-1.528 1.527Zm-3.394 0 1.527 1.528 1.528-1.528-1.528-1.527-1.527 1.527Zm10.182 0 1.528 1.528 1.527-1.528-1.527-1.527-1.528 1.527Zm3.395 0 1.527 1.528 1.527-1.528-1.527-1.527-1.527 1.527Zm-6.789 0 1.528 1.528 1.527-1.528-1.527-1.527-1.528 1.527Zm-8.485-1.697 1.527 1.528 1.528-1.528-1.528-1.527-1.527 1.527Zm3.394 0 1.528 1.528 1.527-1.528-1.527-1.527-1.528 1.527Zm-6.788 0 1.527 1.528 1.528-1.528-1.528-1.527L.29 17.091Zm10.182 0L12 18.619l1.527-1.528L12 15.564l-1.528 1.527Zm6.789 0 1.527 1.528 1.527-1.528-1.527-1.527-1.527 1.527Zm-3.395 0 1.528 1.528 1.527-1.528-1.527-1.527-1.528 1.527Zm6.789 0 1.527 1.528 1.527-1.528-1.527-1.527-1.527 1.527ZM5.381 15.394l1.527 1.527 1.528-1.527-1.528-1.527-1.527 1.527Zm-3.394 0 1.527 1.527 1.528-1.527-1.528-1.527-1.527 1.527Zm6.788 0 1.528 1.527 1.527-1.527-1.527-1.527-1.528 1.527Zm3.394 0 1.528 1.527 1.527-1.527-1.527-1.527-1.528 1.527Zm6.789 0 1.527 1.527 1.527-1.527-1.527-1.527-1.527 1.527Zm-3.395 0 1.528 1.527 1.527-1.527-1.527-1.527-1.528 1.527Zm-1.697-1.697 1.528 1.527 1.527-1.527-1.527-1.527-1.528 1.527Zm-6.788 0 1.528 1.527 1.527-1.527-1.527-1.527-1.528 1.527Zm-3.394 0 1.527 1.527 1.528-1.527-1.528-1.527-1.527 1.527Zm-3.394 0 1.527 1.527 1.528-1.527-1.528-1.527L.29 13.697Zm10.182 0L12 15.224l1.527-1.527L12 12.17l-1.528 1.527Zm10.183 0 1.527 1.527 1.527-1.527-1.527-1.527-1.527 1.527Zm-3.394 0 1.527 1.527 1.527-1.527-1.527-1.527-1.527 1.527ZM15.563 12l1.528 1.527L18.618 12l-1.527-1.527L15.563 12ZM5.381 12l1.527 1.527L8.436 12l-1.528-1.527L5.381 12Zm6.788 0 1.528 1.527L15.224 12l-1.527-1.527L12.169 12ZM1.987 12l1.527 1.527L5.042 12l-1.528-1.527L1.987 12Zm6.788 0 1.528 1.527L11.83 12l-1.527-1.527L8.775 12Zm10.183 0 1.527 1.527L22.012 12l-1.527-1.527L18.958 12Zm-1.697-1.697 1.527 1.527 1.527-1.527-1.527-1.527-1.527 1.527Zm-16.971 0 1.527 1.527 1.528-1.527-1.528-1.527L.29 10.303Zm10.182 0L12 11.83l1.527-1.527L12 8.776l-1.528 1.527Zm-6.788 0 1.527 1.527 1.528-1.527-1.528-1.527-1.527 1.527Zm3.394 0 1.528 1.527 1.527-1.527-1.527-1.527-1.528 1.527Zm6.788 0 1.528 1.527 1.527-1.527-1.527-1.527-1.528 1.527Zm6.789 0 1.527 1.527 1.527-1.527-1.527-1.527-1.527 1.527Zm-1.697-1.697 1.527 1.527 1.527-1.527-1.527-1.527-1.527 1.527Zm-6.789 0 1.528 1.527 1.527-1.527-1.527-1.527-1.528 1.527Zm-6.788 0 1.527 1.527 1.528-1.527-1.528-1.527-1.527 1.527Zm10.182 0 1.528 1.527 1.527-1.527-1.527-1.527-1.528 1.527Zm-6.788 0 1.528 1.527 1.527-1.527-1.527-1.527-1.528 1.527Zm-6.788 0 1.527 1.527 1.528-1.527-1.528-1.527-1.527 1.527Zm5.091-1.697 1.528 1.527 1.527-1.527-1.527-1.528-1.528 1.528Zm13.577 0 1.527 1.527 1.527-1.527-1.527-1.528-1.527 1.528Zm-3.394 0 1.527 1.527 1.527-1.527-1.527-1.528-1.527 1.528Zm-3.395 0 1.528 1.527 1.527-1.527-1.527-1.528-1.528 1.528Zm-3.394 0L12 8.436l1.527-1.527L12 5.381l-1.528 1.528Zm-6.788 0 1.527 1.527 1.528-1.527-1.528-1.528-1.527 1.528Zm-3.394 0 1.527 1.527 1.528-1.527-1.528-1.528L.29 6.909Zm11.879-1.697 1.528 1.527 1.527-1.527-1.527-1.528-1.528 1.528Zm-3.394 0 1.528 1.527 1.527-1.527-1.527-1.528-1.528 1.528Zm6.788 0 1.528 1.527 1.527-1.527-1.527-1.528-1.528 1.528Zm-10.182 0 1.527 1.527 1.528-1.527-1.528-1.528-1.527 1.528Zm-3.394 0 1.527 1.527 1.528-1.527-1.528-1.528-1.527 1.528Zm16.971 0 1.527 1.527 1.527-1.527-1.527-1.528-1.527 1.528ZM7.078 3.515l1.528 1.527 1.527-1.527-1.527-1.528-1.528 1.528Zm3.394 0L12 5.042l1.527-1.527L12 1.987l-1.528 1.528Zm3.394 0 1.528 1.527 1.527-1.527-1.527-1.528-1.528 1.528Zm-10.182 0 1.527 1.527 1.528-1.527-1.528-1.528-1.527 1.528Zm-3.394 0 1.527 1.527 1.528-1.527-1.528-1.528L.29 3.515Zm20.365 0 1.527 1.527 1.527-1.527-1.527-1.528-1.527 1.528Zm-3.394 0 1.527 1.527 1.527-1.527-1.527-1.528-1.527 1.528ZM8.775 1.818l1.528 1.527 1.527-1.527L10.303.29 8.775 1.818Zm3.394 0 1.528 1.527 1.527-1.527L13.697.29l-1.528 1.528Zm3.394 0 1.528 1.527 1.527-1.527L17.091.29l-1.528 1.528Zm3.395 0 1.527 1.527 1.527-1.527L20.485.29l-1.527 1.528Zm-16.971 0 1.527 1.527 1.528-1.527L3.514.29 1.987 1.818Zm3.394 0 1.527 1.527 1.528-1.527L6.908.29 5.381 1.818Z"/></svg>