<svg width="100" height="100" xmlns="http://www.w3.org/2000/svg"><path d="M0 0v2.121l22.393 22.39 1.177-1.177L.236 0Zm4.477 0-.69.69 1.178 1.18L6.834 0ZM9.19 0 6.145 3.047l1.177 1.18L11.55 0Zm4.713 0L8.5 5.404l1.18 1.178L16.262 0Zm4.715 0-7.762 7.762 1.18 1.177L20.977 0Zm4.715 0-10.12 10.12 1.179 1.177L25 .689l10.607 10.608 1.178-1.178L26.666 0Zm5.69 0 8.939 8.94 1.18-1.178L31.38 0Zm4.714 0 6.582 6.582 1.18-1.178L36.096 0Zm4.713 0 4.227 4.227 1.177-1.18L40.81 0Zm4.715 0 1.87 1.87L46.212.69l-.69-.69Zm6.598 0L26.43 23.334l1.177 1.178L50 2.122l22.393 22.39 1.177-1.178L50.236 0H50Zm4.713 0-.69.69 1.178 1.18L56.834 0Zm4.714 0-3.046 3.047 1.177 1.18L61.55 0Zm4.713 0L58.5 5.404l1.18 1.178L66.262 0Zm4.715 0-7.762 7.762 1.18 1.177L70.977 0Zm4.715 0-10.12 10.12 1.179 1.177L75 .689l10.607 10.608 1.178-1.178L76.666 0Zm5.69 0 8.939 8.94 1.18-1.178L81.38 0Zm4.714 0 6.582 6.582 1.18-1.178L86.096 0Zm4.713 0 4.227 4.227 1.177-1.18L90.81 0Zm4.715 0 1.87 1.87L96.212.69l-.69-.69Zm6.598 0L76.43 23.334l1.177 1.178L100 2.122V0ZM25 3.047l-9.428 9.428 1.178 1.18L25 5.404l8.25 8.25 1.178-1.18zm50 0-9.428 9.428 1.178 1.18L75 5.404l8.25 8.25 1.178-1.18ZM0 4.477v2.357l20.035 20.035 1.178-1.18zm50 0L28.787 25.689l1.178 1.18L50 6.834l20.035 20.035 1.178-1.18Zm50 0L78.787 25.689l1.178 1.18L100 6.834ZM25 7.762l-7.07 7.07 1.177 1.18L25 10.119l5.893 5.893 1.177-1.18zm50 0-7.07 7.07 1.177 1.18L75 10.119l5.893 5.893 1.177-1.18zM0 9.192v2.357l17.678 17.678 1.177-1.18zm50 0L31.145 28.046l1.177 1.18L50 11.549l17.678 17.678 1.177-1.18Zm50 0L81.145 28.046l1.177 1.18L100 11.549Zm-75 3.283-4.715 4.714 1.18 1.178L25 14.832l3.535 3.535 1.18-1.178zm50 0-4.715 4.714 1.18 1.178L75 14.832l3.535 3.535 1.18-1.178zm-75 1.43v2.357l15.32 15.32 1.18-1.178Zm50 0-16.5 16.5 1.18 1.177L50 16.262l15.32 15.32 1.18-1.178Zm50 0-16.5 16.5 1.18 1.177L100 16.262Zm-75 3.284-2.357 2.358 1.18 1.178L25 19.547l1.178 1.178 1.18-1.178zm50 0-2.357 2.358 1.18 1.178L75 19.547l1.178 1.178 1.18-1.178zM0 18.62v2.358L12.963 33.94l1.18-1.177zm50 0L35.857 32.762l1.18 1.177L50 20.977l12.963 12.962 1.18-1.177Zm50 0L85.857 32.762l1.18 1.177L100 20.977ZM0 23.334v2.355l10.607 10.608 1.178-1.178zm50 0L38.215 35.119l1.178 1.178L50 25.689l10.607 10.608 1.178-1.178Zm50 0L88.215 35.119l1.178 1.178L100 25.689Zm-75 1.43L1.43 48.334l1.177 1.178L25 27.122l22.393 22.39 1.177-1.178Zm50 0-23.57 23.57 1.177 1.178L75 27.122l22.393 22.39 1.177-1.178ZM0 28.047v2.357l8.25 8.25 1.178-1.18zm50 0-9.428 9.428 1.178 1.18 8.25-8.25 8.25 8.25 1.178-1.18zm50 0-9.428 9.428 1.178 1.18 8.25-8.25zm-75 1.43L4.477 50l-.69.69 1.178 1.18L6.834 50 25 31.834 43.166 50l1.87 1.87 1.177-1.18-.69-.69Zm50 0L54.477 50l-.69.69 1.178 1.18L56.834 50 75 31.834 93.166 50l1.87 1.87 1.177-1.18-.69-.69ZM0 32.762v2.357l5.893 5.893 1.177-1.18zm50 0-7.07 7.07 1.177 1.18L50 35.119l5.893 5.893 1.177-1.18zm50 0-7.07 7.07 1.177 1.18L100 35.119Zm-75 1.43L9.191 50l-3.046 3.047 1.177 1.18L11.55 50 25 36.549 38.451 50l4.227 4.227 1.177-1.18L40.81 50Zm50 0L59.191 50l-3.046 3.047 1.177 1.18L61.55 50 75 36.549 88.451 50l4.227 4.227 1.177-1.18L90.81 50ZM0 37.474v2.357l3.535 3.535 1.18-1.178zm50 0-4.715 4.714 1.18 1.178L50 39.832l3.535 3.535 1.18-1.178zm50 0-4.715 4.714 1.18 1.178L100 39.832Zm-75 1.43L13.904 50 8.5 55.404l1.18 1.178L16.262 50 25 41.262 33.738 50l6.582 6.582 1.18-1.178L36.096 50Zm50 0L63.904 50 58.5 55.404l1.18 1.178L66.262 50 75 41.262 83.738 50l6.582 6.582 1.18-1.178L86.096 50ZM0 42.188v2.358l1.178 1.178 1.18-1.178zm50 0-2.357 2.358 1.18 1.178L50 44.547l1.178 1.178 1.18-1.178zm50 0-2.357 2.358 1.18 1.178L100 44.547Zm-75 1.43L18.62 50l-7.763 7.762 1.18 1.177L20.977 50 25 45.977 29.023 50l8.94 8.94 1.18-1.178L31.38 50Zm50 0L68.62 50l-7.763 7.762 1.18 1.177L70.977 50 75 45.977 79.023 50l8.94 8.94 1.18-1.178L81.38 50Zm-50 4.715L23.334 50l-10.12 10.12 1.179 1.177L25 50.689l10.607 10.608 1.178-1.178L26.666 50Zm50 0L73.334 50l-10.12 10.12 1.179 1.177L75 50.689l10.607 10.608 1.178-1.178L76.666 50ZM0 50v2.121l22.393 22.39 1.177-1.177L.236 50Zm49.764 0L26.43 73.334l1.177 1.178L50 52.122l22.393 22.39 1.177-1.178L50.236 50H50Zm50 0L76.43 73.334l1.177 1.178L100 52.122V50ZM25 53.047l-9.428 9.428 1.178 1.18 8.25-8.25 8.25 8.25 1.178-1.18zm50 0-9.428 9.428 1.178 1.18 8.25-8.25 8.25 8.25 1.178-1.18zm-75 1.43v2.357l20.035 20.035 1.178-1.18zm50 0L28.787 75.689l1.178 1.18L50 56.834l20.035 20.035 1.178-1.18Zm50 0L78.787 75.689l1.178 1.18L100 56.834Zm-75 3.285-7.07 7.07 1.177 1.18L25 60.119l5.893 5.893 1.177-1.18zm50 0-7.07 7.07 1.177 1.18L75 60.119l5.893 5.893 1.177-1.18zm-75 1.43v2.357l17.678 17.678 1.177-1.18zm50 0L31.145 78.046l1.177 1.18L50 61.549l17.678 17.678 1.177-1.18Zm50 0L81.145 78.046l1.177 1.18L100 61.549Zm-75 3.283-4.715 4.714 1.18 1.178L25 64.832l3.535 3.535 1.18-1.178zm50 0-4.715 4.714 1.18 1.178L75 64.832l3.535 3.535 1.18-1.178zm-75 1.43v2.357l15.32 15.32 1.18-1.178Zm50 0-16.5 16.5 1.18 1.177L50 66.262l15.32 15.32 1.18-1.178Zm50 0-16.5 16.5 1.18 1.177L100 66.262Zm-75 3.284-2.357 2.358 1.18 1.178L25 69.547l1.178 1.178 1.18-1.178zm50 0-2.357 2.358 1.18 1.178L75 69.547l1.178 1.178 1.18-1.178zM0 68.62v2.358L12.963 83.94l1.18-1.177zm50 0L35.857 82.762l1.18 1.177L50 70.977l12.963 12.962 1.18-1.177Zm50 0L85.857 82.762l1.18 1.177L100 70.977ZM0 73.334v2.355l10.607 10.608 1.178-1.178zm50 0L38.215 85.119l1.178 1.178L50 75.689l10.607 10.608 1.178-1.178Zm50 0L88.215 85.119l1.178 1.178L100 75.689Zm-75 1.43L1.43 98.334l1.177 1.178L25 77.122l22.393 22.39 1.177-1.178Zm50 0-23.57 23.57 1.177 1.178L75 77.122l22.393 22.39 1.177-1.178ZM0 78.047v2.357l8.25 8.25 1.178-1.18zm50 0-9.428 9.428 1.178 1.18 8.25-8.25 8.25 8.25 1.178-1.18zm50 0-9.428 9.428 1.178 1.18 8.25-8.25zm-75 1.43L4.477 100h2.357L25 81.834 43.166 100h2.357zm50 0L54.477 100h2.357L75 81.834 93.166 100h2.357zM0 82.762v2.357l5.893 5.893 1.177-1.18zm50 0-7.07 7.07 1.177 1.18L50 85.119l5.893 5.893 1.177-1.18zm50 0-7.07 7.07 1.177 1.18L100 85.119Zm-75 1.43L9.191 100h2.358L25 86.549 38.451 100h2.358zm50 0L59.191 100h2.358L75 86.549 88.451 100h2.358zM0 87.474v2.357l3.535 3.535 1.18-1.178zm50 0-4.715 4.714 1.18 1.178L50 89.832l3.535 3.535 1.18-1.178zm50 0-4.715 4.714 1.18 1.178L100 89.832Zm-75 1.43L13.904 100h2.358L25 91.262 33.738 100h2.358zm50 0L63.904 100h2.358L75 91.262 83.738 100h2.358zM0 92.188v2.358l1.178 1.178 1.18-1.178zm50 0-2.357 2.358 1.18 1.178L50 94.547l1.178 1.178 1.18-1.178zm50 0-2.357 2.358 1.18 1.178L100 94.547Zm-75 1.43L18.62 100h2.357L25 95.977 29.023 100h2.358zm50 0L68.62 100h2.357L75 95.977 79.023 100h2.358zm-50 4.715L23.334 100h3.332zm50 0L73.334 100h3.332z"/></svg>