<svg width="100" height="100" xmlns="http://www.w3.org/2000/svg"><path d="M0 0v4.167h7.143V0Zm25 0v4.167h7.143V0Zm8.333 0v4.167h7.143V0Zm8.334 0v4.167h7.143V0ZM50 0v4.167h7.143V0Zm25 0v4.167h7.143V0Zm8.333 0v4.167h7.143V0Zm8.334 0v4.167h7.143V0ZM0 5.556v4.166h7.143V5.556Zm8.333 0v4.166h7.143V5.556Zm8.334 0v4.166h7.143V5.556Zm8.333 0v4.166h7.143V5.556Zm8.333 0v4.166h7.143V5.556Zm16.667 0v4.166h7.143V5.556Zm8.333 0v4.166h7.143V5.556Zm8.334 0v4.166h7.143V5.556Zm8.333 0v4.166h7.143V5.556Zm8.333 0v4.166h7.143V5.556Zm-75 5.555v4.167h7.143V11.11zm8.334 0v4.167h7.143V11.11zm16.666 0v4.167h7.143V11.11zm8.334 0v4.167h7.143V11.11zm16.666 0v4.167h7.143V11.11zm8.334 0v4.167h7.143V11.11zm16.666 0v4.167h7.143V11.11zm8.334 0v4.167h7.143V11.11ZM0 16.667v4.166h7.143v-4.166zm8.333 0v4.166h7.143v-4.166zm16.667 0v4.166h7.143v-4.166zm8.333 0v4.166h7.143v-4.166zm16.667 0v4.166h7.143v-4.166zm8.333 0v4.166h7.143v-4.166zm16.667 0v4.166h7.143v-4.166zm8.333 0v4.166h7.143v-4.166ZM0 22.222v4.167h7.143v-4.167zm8.333 0v4.167h7.143v-4.167zm8.334 0v4.167h7.143v-4.167zm16.666 0v4.167h7.143v-4.167zm8.334 0v4.167h7.143v-4.167zm8.333 0v4.167h7.143v-4.167zm8.333 0v4.167h7.143v-4.167zm8.334 0v4.167h7.143v-4.167zm16.666 0v4.167h7.143v-4.167zm8.334 0v4.167h7.143v-4.167ZM8.333 27.778v4.166h7.143v-4.166zm8.334 0v4.166h7.143v-4.166zm8.333 0v4.166h7.143v-4.166zm16.667 0v4.166h7.143v-4.166zm16.666 0v4.166h7.143v-4.166zm8.334 0v4.166h7.143v-4.166zm8.333 0v4.166h7.143v-4.166zm16.667 0v4.166h7.143v-4.166ZM0 33.333V37.5h7.143v-4.167zm25 0V37.5h7.143v-4.167zm8.333 0V37.5h7.143v-4.167zm8.334 0V37.5h7.143v-4.167zm8.333 0V37.5h7.143v-4.167zm25 0V37.5h7.143v-4.167zm8.333 0V37.5h7.143v-4.167zm8.334 0V37.5h7.143v-4.167ZM0 38.89v4.167h7.143V38.89zm8.333 0v4.167h7.143V38.89zm8.334 0v4.167h7.143V38.89zm8.333 0v4.167h7.143V38.89zm8.333 0v4.167h7.143V38.89zm16.667 0v4.167h7.143V38.89zm8.333 0v4.167h7.143V38.89zm8.334 0v4.167h7.143V38.89zm8.333 0v4.167h7.143V38.89zm8.333 0v4.167h7.143V38.89Zm-75 5.555v4.167h7.143v-4.167zm8.334 0v4.167h7.143v-4.167zm16.666 0v4.167h7.143v-4.167zm8.334 0v4.167h7.143v-4.167zm16.666 0v4.167h7.143v-4.167zm8.334 0v4.167h7.143v-4.167zm16.666 0v4.167h7.143v-4.167zm8.334 0v4.167h7.143v-4.167ZM0 50v4.167h7.143V50Zm8.333 0v4.167h7.143V50ZM25 50v4.167h7.143V50Zm8.333 0v4.167h7.143V50ZM50 50v4.167h7.143V50Zm8.333 0v4.167h7.143V50ZM75 50v4.167h7.143V50Zm8.333 0v4.167h7.143V50ZM0 55.556v4.166h7.143v-4.166zm8.333 0v4.166h7.143v-4.166zm8.334 0v4.166h7.143v-4.166zm16.666 0v4.166h7.143v-4.166zm8.334 0v4.166h7.143v-4.166zm8.333 0v4.166h7.143v-4.166zm8.333 0v4.166h7.143v-4.166zm8.334 0v4.166h7.143v-4.166zm16.666 0v4.166h7.143v-4.166zm8.334 0v4.166h7.143v-4.166ZM8.333 61.11v4.167h7.143V61.11zm8.334 0v4.167h7.143V61.11zm8.333 0v4.167h7.143V61.11zm16.667 0v4.167h7.143V61.11zm16.666 0v4.167h7.143V61.11zm8.334 0v4.167h7.143V61.11zm8.333 0v4.167h7.143V61.11zm16.667 0v4.167h7.143V61.11ZM0 66.667v4.166h7.143v-4.166zm25 0v4.166h7.143v-4.166zm8.333 0v4.166h7.143v-4.166zm8.334 0v4.166h7.143v-4.166zm8.333 0v4.166h7.143v-4.166zm25 0v4.166h7.143v-4.166zm8.333 0v4.166h7.143v-4.166zm8.334 0v4.166h7.143v-4.166ZM0 72.222v4.167h7.143v-4.167zm8.333 0v4.167h7.143v-4.167zm8.334 0v4.167h7.143v-4.167zm8.333 0v4.167h7.143v-4.167zm8.333 0v4.167h7.143v-4.167zm16.667 0v4.167h7.143v-4.167zm8.333 0v4.167h7.143v-4.167zm8.334 0v4.167h7.143v-4.167zm8.333 0v4.167h7.143v-4.167zm8.333 0v4.167h7.143v-4.167Zm-75 5.556v4.166h7.143v-4.166zm8.334 0v4.166h7.143v-4.166zm16.666 0v4.166h7.143v-4.166zm8.334 0v4.166h7.143v-4.166zm16.666 0v4.166h7.143v-4.166zm8.334 0v4.166h7.143v-4.166zm16.666 0v4.166h7.143v-4.166zm8.334 0v4.166h7.143v-4.166ZM0 83.333V87.5h7.143v-4.167zm8.333 0V87.5h7.143v-4.167Zm16.667 0V87.5h7.143v-4.167zm8.333 0V87.5h7.143v-4.167zm16.667 0V87.5h7.143v-4.167zm8.333 0V87.5h7.143v-4.167zm16.667 0V87.5h7.143v-4.167zm8.333 0V87.5h7.143v-4.167ZM0 88.89v4.167h7.143V88.89zm8.333 0v4.167h7.143V88.89zm8.334 0v4.167h7.143V88.89zm16.666 0v4.167h7.143V88.89zm8.334 0v4.167h7.143V88.89zm8.333 0v4.167h7.143V88.89zm8.333 0v4.167h7.143V88.89zm8.334 0v4.167h7.143V88.89zm16.666 0v4.167h7.143V88.89zm8.334 0v4.167h7.143V88.89ZM8.333 94.444v4.167h7.143v-4.167zm8.334 0v4.167h7.143v-4.167zm8.333 0v4.167h7.143v-4.167zm16.667 0v4.167h7.143v-4.167zm16.666 0v4.167h7.143v-4.167zm8.334 0v4.167h7.143v-4.167zm8.333 0v4.167h7.143v-4.167zm16.667 0v4.167h7.143v-4.167z" fill-rule="evenodd"/></svg>