<svg width="100" height="100" xmlns="http://www.w3.org/2000/svg"><path d="M0 0v.7l1.414 1.415.705-.705L.705 0Zm19.295 0L17.88 1.414l.705.705L20 .705V.7l1.414 1.416.705-.705L20.705 0H20Zm20 0L37.88 1.414l.705.705L40 .705V.7l1.414 1.416.705-.705L40.705 0H40Zm20 0L57.88 1.414l.705.705L60 .705V.7l1.414 1.416.705-.705L60.705 0H60Zm20 0L77.88 1.414l.705.705L80 .705V.7l1.414 1.416.705-.705L80.705 0H80Zm20 0L97.88 1.414l.705.705L100 .705V0ZM8.585 7.88l-.704.706L9.295 10 7.88 11.414l.705.705L10 10.705l1.414 1.414.705-.705L10.705 10l1.414-1.41-.705-.705L10 9.3v-.006zm20 0-.704.706L29.295 10l-1.414 1.414.705.705L30 10.705l1.414 1.414.705-.705L30.705 10l1.414-1.41-.705-.705L30 9.3v-.006zm20 0-.704.706L49.295 10l-1.414 1.414.705.705L50 10.705l1.414 1.414.705-.705L50.705 10l1.414-1.41-.705-.705L50 9.3v-.006zm20 0-.704.706L69.295 10l-1.414 1.414.705.705L70 10.705l1.414 1.414.705-.705L70.705 10l1.414-1.41-.705-.705L70 9.3v-.006zm20 0-.704.706L89.295 10l-1.414 1.414.705.705L90 10.705l1.414 1.414.705-.705L90.705 10l1.414-1.41-.705-.705L90 9.3v-.006zm-87.17 10L0 19.296V20.7l1.414 1.415.705-.705L.705 20l1.414-1.414Zm17.17 0-.704.706L19.295 20l-1.414 1.414.705.705L20 20.705V20.7l1.414 1.416.705-.705L20.705 20l1.414-1.414-.705-.705L20 19.295Zm20 0-.704.706L39.295 20l-1.414 1.414.705.705L40 20.705V20.7l1.414 1.416.705-.705L40.705 20l1.414-1.414-.705-.705L40 19.295Zm20 0-.704.706L59.295 20l-1.414 1.414.705.705L60 20.705V20.7l1.414 1.416.705-.705L60.705 20l1.414-1.414-.705-.705L60 19.295Zm20 0-.704.706L79.295 20l-1.414 1.414.705.705L80 20.705V20.7l1.414 1.416.705-.705L80.705 20l1.414-1.414-.705-.705L80 19.295Zm20 0-.704.706L99.295 20l-1.414 1.414.705.705L100 20.705v-1.41Zm-90 10-.704.706L9.295 30 7.88 31.414l.705.705L10 30.705l1.414 1.414.705-.705L10.705 30l1.414-1.41-.705-.705L10 29.3v-.006zm20 0-.704.706L29.295 30l-1.414 1.414.705.705L30 30.705l1.414 1.414.705-.705L30.705 30l1.414-1.41-.705-.705L30 29.3v-.006zm20 0-.704.706L49.295 30l-1.414 1.414.705.705L50 30.705l1.414 1.414.705-.705L50.705 30l1.414-1.41-.705-.705L50 29.3v-.006zm20 0-.704.706L69.295 30l-1.414 1.414.705.705L70 30.705l1.414 1.414.705-.705L70.705 30l1.414-1.41-.705-.705L70 29.3v-.006zm20 0-.704.706L89.295 30l-1.414 1.414.705.705L90 30.705l1.414 1.414.705-.705L90.705 30l1.414-1.41-.705-.705L90 29.3v-.006zm-87.17 10L0 39.296V40.7l1.414 1.415.705-.705L.705 40l1.414-1.414Zm17.17 0-.704.706L19.295 40l-1.414 1.414.705.705L20 40.705V40.7l1.414 1.416.705-.705L20.705 40l1.414-1.414-.705-.705L20 39.295Zm20 0-.704.706L39.295 40l-1.414 1.414.705.705L40 40.705V40.7l1.414 1.416.705-.705L40.705 40l1.414-1.414-.705-.705L40 39.295Zm20 0-.704.706L59.295 40l-1.414 1.414.705.705L60 40.705V40.7l1.414 1.416.705-.705L60.705 40l1.414-1.414-.705-.705L60 39.295Zm20 0-.704.706L79.295 40l-1.414 1.414.705.705L80 40.705V40.7l1.414 1.416.705-.705L80.705 40l1.414-1.414-.705-.705L80 39.295Zm20 0-.704.706L99.295 40l-1.414 1.414.705.705L100 40.705v-1.41Zm-90 10-.704.706L9.295 50 7.88 51.414l.705.705L10 50.705l1.414 1.414.705-.705L10.705 50l1.414-1.41-.705-.705L10 49.3v-.006zm20 0-.704.706L29.295 50l-1.414 1.414.705.705L30 50.705l1.414 1.414.705-.705L30.705 50l1.414-1.41-.705-.705L30 49.3v-.006zm20 0-.704.706L49.295 50l-1.414 1.414.705.705L50 50.705l1.414 1.414.705-.705L50.705 50l1.414-1.41-.705-.705L50 49.3v-.006zm20 0-.704.706L69.295 50l-1.414 1.414.705.705L70 50.705l1.414 1.414.705-.705L70.705 50l1.414-1.41-.705-.705L70 49.3v-.006zm20 0-.704.706L89.295 50l-1.414 1.414.705.705L90 50.705l1.414 1.414.705-.705L90.705 50l1.414-1.41-.705-.705L90 49.3v-.006zm-87.17 10L0 59.296V60.7l1.414 1.415.705-.705L.705 60l1.414-1.414Zm17.17 0-.704.706L19.295 60l-1.414 1.414.705.705L20 60.705V60.7l1.414 1.416.705-.705L20.705 60l1.414-1.414-.705-.705L20 59.295Zm20 0-.704.706L39.295 60l-1.414 1.414.705.705L40 60.705V60.7l1.414 1.416.705-.705L40.705 60l1.414-1.414-.705-.705L40 59.295Zm20 0-.704.706L59.295 60l-1.414 1.414.705.705L60 60.705V60.7l1.414 1.416.705-.705L60.705 60l1.414-1.414-.705-.705L60 59.295Zm20 0-.704.706L79.295 60l-1.414 1.414.705.705L80 60.705V60.7l1.414 1.416.705-.705L80.705 60l1.414-1.414-.705-.705L80 59.295Zm20 0-.704.706L99.295 60l-1.414 1.414.705.705L100 60.705v-1.41Zm-90 10-.704.706L9.295 70 7.88 71.414l.705.705L10 70.705l1.414 1.414.705-.705L10.705 70l1.414-1.41-.705-.705L10 69.3v-.006zm20 0-.704.706L29.295 70l-1.414 1.414.705.705L30 70.705l1.414 1.414.705-.705L30.705 70l1.414-1.41-.705-.705L30 69.3v-.006zm20 0-.704.706L49.295 70l-1.414 1.414.705.705L50 70.705l1.414 1.414.705-.705L50.705 70l1.414-1.41-.705-.705L50 69.3v-.006zm20 0-.704.706L69.295 70l-1.414 1.414.705.705L70 70.705l1.414 1.414.705-.705L70.705 70l1.414-1.41-.705-.705L70 69.3v-.006zm20 0-.704.706L89.295 70l-1.414 1.414.705.705L90 70.705l1.414 1.414.705-.705L90.705 70l1.414-1.41-.705-.705L90 69.3v-.006zm-87.17 10L0 79.296V80.7l1.414 1.415.705-.705L.705 80l1.414-1.414Zm17.17 0-.704.706L19.295 80l-1.414 1.414.705.705L20 80.705V80.7l1.414 1.416.705-.705L20.705 80l1.414-1.414-.705-.705L20 79.295Zm20 0-.704.706L39.295 80l-1.414 1.414.705.705L40 80.705V80.7l1.414 1.416.705-.705L40.705 80l1.414-1.414-.705-.705L40 79.295Zm20 0-.704.706L59.295 80l-1.414 1.414.705.705L60 80.705V80.7l1.414 1.416.705-.705L60.705 80l1.414-1.414-.705-.705L60 79.295Zm20 0-.704.706L79.295 80l-1.414 1.414.705.705L80 80.705V80.7l1.414 1.416.705-.705L80.705 80l1.414-1.414-.705-.705L80 79.295Zm20 0-.704.706L99.295 80l-1.414 1.414.705.705L100 80.705v-1.41Zm-90 10-.704.706L9.295 90 7.88 91.414l.705.705L10 90.705l1.414 1.414.705-.705L10.705 90l1.414-1.41-.705-.705L10 89.3v-.006zm20 0-.704.706L29.295 90l-1.414 1.414.705.705L30 90.705l1.414 1.414.705-.705L30.705 90l1.414-1.41-.705-.705L30 89.3v-.006zm20 0-.704.706L49.295 90l-1.414 1.414.705.705L50 90.705l1.414 1.414.705-.705L50.705 90l1.414-1.41-.705-.705L50 89.3v-.006zm20 0-.704.706L69.295 90l-1.414 1.414.705.705L70 90.705l1.414 1.414.705-.705L70.705 90l1.414-1.41-.705-.705L70 89.3v-.006zm20 0-.704.706L89.295 90l-1.414 1.414.705.705L90 90.705l1.414 1.414.705-.705L90.705 90l1.414-1.41-.705-.705L90 89.3v-.006zm-87.17 10L0 99.296V100h.705l1.414-1.414Zm17.17 0-.704.706L19.295 100h1.41l1.414-1.414-.705-.705L20 99.295Zm20 0-.704.706L39.295 100h1.41l1.414-1.414-.705-.705L40 99.295Zm20 0-.704.706L59.295 100h1.41l1.414-1.414-.705-.705L60 99.295Zm20 0-.704.706L79.295 100h1.41l1.414-1.414-.705-.705L80 99.295Zm20 0-.704.706L99.295 100H100v-.705z" fill-rule="evenodd"/></svg>