<svg width="100" height="100" xmlns="http://www.w3.org/2000/svg"><path d="M9.21 0v2.63H2.63v6.58H0v.66h2.63v13.155h13.817v-6.578h6.578V2.631H9.87V0Zm30.265 0v2.63H26.316v13.817h6.579v6.578H46.71V9.87h2.63v29.606h-2.63v-13.16H32.895v6.579h-6.579V46.71h13.159v2.63H9.869v-2.63h13.156V32.895h-6.578v-6.579H2.631v13.159H0v.656h2.63v6.58h6.58v2.63H0V50h9.21v2.63H2.63v6.58H0v.66h2.63v13.155h13.817v-6.578h6.578V52.631H9.87V50h29.606v2.63h-13.16v13.817h6.579v6.578H46.71V59.87h2.63v29.606h-2.63v-13.16H32.895v6.579h-6.579V96.71h13.159v2.63H9.869v-2.63h13.156V82.895h-6.578v-6.579H2.631v13.159H0v.656h2.63v6.58h6.58v2.63H0V100h100V0h-.658v9.21H96.71V2.63h-6.58V0h-.656v2.63H76.316v13.817h6.579v6.578H96.71V9.87h2.63v29.606h-2.63v-13.16H82.895v6.579h-6.579V46.71h13.159v2.63H59.869v-2.63h13.156V32.895h-6.578v-6.579H52.631v13.159H50V9.869h2.63v13.156h13.817v-6.578h6.578V2.631H59.87V0h-.658v2.63h-6.58v6.58H50V0h-.658v9.21H46.71V2.63h-6.58V0ZM3.289 3.29h5.922v5.92H3.289zm6.58 0h12.5v5.92h-6.58v6.58H9.211v6.58H3.289V9.87h6.58zm17.106 0h12.5v6.58h6.578v12.5H40.13v-6.58h-6.578V9.21h-6.578zm13.156 0h5.922v5.92H40.13zm13.158 0h5.922v5.92h-5.922zm6.58 0h12.5v5.92h-6.58v6.58h-6.578v6.58h-5.922V9.87h6.58zm17.106 0h12.5v6.58h6.578v12.5H90.13v-6.58h-6.578V9.21h-6.578zm13.156 0h5.922v5.92H90.13ZM16.447 9.87h5.922v5.92h-5.922zm10.528 0h5.92v5.92h-5.92zm39.472 0h5.922v5.92h-5.922zm10.528 0h5.92v5.92h-5.92ZM9.869 16.446h5.92v5.922H9.87Zm23.684 0h5.922v5.922h-5.922zm26.316 0h5.92v5.922h-5.92zm23.684 0h5.922v5.922h-5.922ZM3.289 26.975h5.922v6.578h6.578v6.578h6.58v5.922H9.87v-6.578H3.29Zm6.58 0h5.92v5.92H9.87Zm23.684 0h5.922v5.92h-5.922zm6.578 0h5.922v12.5h-6.578v6.578h-12.5V40.13h6.578v-6.578h6.578zm13.158 0h5.922v6.578h6.578v6.578h6.58v5.922h-12.5v-6.578h-6.58zm6.58 0h5.92v5.92h-5.92zm23.684 0h5.922v5.92h-5.922zm6.578 0h5.922v12.5h-6.578v6.578h-12.5V40.13h6.578v-6.578h6.578zm-73.684 6.578h5.922v5.922h-5.922zm10.528 0h5.92v5.922h-5.92zm39.472 0h5.922v5.922h-5.922zm10.528 0h5.92v5.922h-5.92ZM3.289 40.13h5.922v5.922H3.289zm36.842 0h5.922v5.922H40.13zm6.58 0h2.63v9.21h-9.21v-2.63h6.58zm3.289 0h2.63v6.58h6.58v2.63H50Zm3.29 0h5.92v5.922h-5.92zm36.84 0h5.923v5.922H90.13zm6.58 0h2.632v9.21H90.13v-2.63h6.58zM40.13 50h9.212v9.21H46.71v-6.58h-6.58ZM50 50h9.21v2.63h-6.58v6.58H50Zm9.87 0h29.605v2.63H76.316v13.817h6.579v6.578H96.71V59.87h2.63v29.606h-2.63v-13.16H82.895v6.579h-6.579V96.71h13.159v2.63H59.869v-2.63h13.156V82.895h-6.578v-6.579H52.631v13.159H50V59.869h2.63v13.156h13.817v-6.578h6.578V52.631H59.87zm30.26 0h9.212v9.21H96.71v-6.58h-6.58ZM3.29 53.29h5.92v5.92H3.29zm6.58 0h12.5v5.92h-6.58v6.58H9.21v6.58H3.29v-12.5h6.58zm17.105 0h12.5v6.58h6.578v12.5H40.13v-6.58h-6.578v-6.58h-6.578zm13.156 0h5.922v5.92H40.13zm13.158 0h5.922v5.92h-5.922zm6.58 0h12.5v5.92h-6.58v6.58h-6.578v6.58h-5.922v-12.5h6.58zm17.106 0h12.5v6.58h6.578v12.5H90.13v-6.58h-6.578v-6.58h-6.578zm13.156 0h5.922v5.92H90.13zm-73.684 6.58h5.922v5.92h-5.922zm10.528 0h5.92v5.92h-5.92zm39.472 0h5.922v5.92h-5.922zm10.528 0h5.92v5.92h-5.92ZM9.869 66.446h5.92v5.922H9.87Zm23.684 0h5.922v5.922h-5.922zm26.316 0h5.92v5.922h-5.92zm23.684 0h5.922v5.922h-5.922ZM3.289 76.975h5.922v6.578h6.578v6.578h6.58v5.922H9.87v-6.578H3.29Zm6.58 0h5.92v5.92H9.87Zm23.684 0h5.922v5.92h-5.922zm6.578 0h5.922v12.5h-6.578v6.578h-12.5V90.13h6.578v-6.578h6.578zm13.158 0h5.922v6.578h6.578v6.578h6.58v5.922h-12.5v-6.578h-6.58zm6.58 0h5.92v5.92h-5.92zm23.684 0h5.922v5.92h-5.922zm6.578 0h5.922v12.5h-6.578v6.578h-12.5V90.13h6.578v-6.578h6.578zm-73.684 6.578h5.922v5.922h-5.922zm10.528 0h5.92v5.922h-5.92zm39.472 0h5.922v5.922h-5.922zm10.528 0h5.92v5.922h-5.92ZM3.289 90.13h5.922v5.922H3.289zm36.842 0h5.922v5.922H40.13zm6.58 0h2.63v9.21h-9.21v-2.63h6.58zm3.289 0h2.63v6.58h6.58v2.63H50Zm3.29 0h5.92v5.922h-5.92zm36.84 0h5.923v5.922H90.13zm6.58 0h2.632v9.21H90.13v-2.63h6.58z" fill-rule="evenodd"/></svg>