<svg width="100" height="100" xmlns="http://www.w3.org/2000/svg"><path d="M5.145 0 0 5.143v4.714L9.861 0Zm10.003 0L5.145 10 0 15.143v4.714L9.861 10l6.81-6.81L23.485 10l9.85 9.846v.011l.006-.005.006.005v-.011L43.193 10l6.813-6.81L56.818 10l9.848 9.846v.011l.006-.005.006.005v-.011L76.523 10l6.811-6.81L90.143 10 100 19.857v-4.714L94.857 10l-10-10h-3.046l-10 10-5.14 5.137L61.534 10 51.53 0h-3.047L38.48 10l-5.14 5.137L28.202 10 18.197 0Zm8.336 0 9.85 9.846v.011l.006-.005.006.005v-.011L43.193 0H38.48l-5.14 5.137L28.202 0Zm33.334 0 9.848 9.846v.011l.006-.005.006.005v-.011L76.523 0h-4.712l-5.14 5.137L61.534 0Zm33.325 0L100 9.857V5.143L94.857 0ZM16.672 8.477 15.148 10 5.145 20 0 25.143v4.714L9.861 20l6.81-6.81L23.485 20l9.85 9.846v.011l.006-.005.006.005v-.011L43.193 20l6.813-6.81L56.818 20l9.848 9.846v.011l.006-.005.006.005v-.011L76.523 20l6.811-6.81L90.143 20 100 29.857v-4.714L94.857 20l-10-10-1.523-1.523L81.811 10l-10 10-5.14 5.137L61.534 20 51.53 10l-1.523-1.523L48.482 10 38.48 20l-5.14 5.137L28.202 20 18.197 10Zm0 10L15.148 20 5.145 30 0 35.143v4.714L9.861 30l6.81-6.81L23.485 30l9.85 9.846v.011l.006-.005.006.005v-.011L43.193 30l6.813-6.81L56.818 30l9.848 9.846v.011l.006-.005.006.005v-.011L76.523 30l6.811-6.81L90.143 30 100 39.857v-4.714L94.857 30l-10-10-1.523-1.523L81.811 20l-10 10-5.14 5.137L61.534 30 51.53 20l-1.523-1.523L48.482 20 38.48 30l-5.14 5.137L28.202 30 18.197 20Zm0 10L15.148 30 5.145 40 0 45.143v4.714L9.861 40l6.81-6.81L23.485 40l9.85 9.846v.011l.006-.005.006.005v-.011L43.193 40l6.813-6.81L56.818 40l9.848 9.846v.011l.006-.005.006.005v-.011L76.523 40l6.811-6.81L90.143 40 100 49.857v-4.714L94.857 40l-10-10-1.523-1.523L81.811 30l-10 10-5.14 5.137L61.534 40 51.53 30l-1.523-1.523L48.482 30 38.48 40l-5.14 5.137L28.202 40 18.197 30Zm0 10L15.148 40 5.145 50 0 55.143v4.714L9.861 50l6.81-6.81L23.485 50l9.85 9.846v.011l.006-.005.006.005v-.011L43.193 50l6.813-6.81L56.818 50l9.848 9.846v.011l.006-.005.006.005v-.011L76.523 50l6.811-6.81L90.143 50 100 59.857v-4.714L94.857 50l-10-10-1.523-1.523L81.811 40l-10 10-5.14 5.137L61.534 50 51.53 40l-1.523-1.523L48.482 40 38.48 50l-5.14 5.137L28.202 50 18.197 40Zm0 10L15.148 50 5.145 60 0 65.143v4.714L9.861 60l6.81-6.81L23.485 60l9.85 9.846v.011l.006-.005.006.005v-.011L43.193 60l6.813-6.81L56.818 60l9.848 9.846v.011l.006-.005.006.005v-.011L76.523 60l6.811-6.81L90.143 60 100 69.857v-4.714L94.857 60l-10-10-1.523-1.523L81.811 50l-10 10-5.14 5.137L61.534 60 51.53 50l-1.523-1.523L48.482 50 38.48 60l-5.14 5.137L28.202 60 18.197 50Zm0 10L15.148 60 5.145 70 0 75.143v4.714L9.861 70l6.81-6.81L23.485 70l9.85 9.846v.011l.006-.005.006.005v-.011L43.193 70l6.813-6.81L56.818 70l9.848 9.846v.011l.006-.005.006.005v-.011L76.523 70l6.811-6.81L90.143 70 100 79.857v-4.714L94.857 70l-10-10-1.523-1.523L81.811 60l-10 10-5.14 5.137L61.534 70 51.53 60l-1.523-1.523L48.482 60 38.48 70l-5.14 5.137L28.202 70 18.197 60Zm0 10L15.148 70 5.145 80 0 85.143v4.714L9.861 80l6.81-6.81L23.485 80l9.85 9.846v.011l.006-.005.006.005v-.011L43.193 80l6.813-6.81L56.818 80l9.848 9.846v.011l.006-.005.006.005v-.011L76.523 80l6.811-6.81L90.143 80 100 89.857v-4.714L94.857 80l-10-10-1.523-1.523L81.811 70l-10 10-5.14 5.137L61.534 80 51.53 70l-1.523-1.523L48.482 70 38.48 80l-5.14 5.137L28.202 80 18.197 70Zm0 10L15.148 80 5.145 90 0 95.143v4.714L9.861 90l6.81-6.81L23.485 90l9.85 9.846v.011l.006-.005.006.005v-.011L43.193 90l6.813-6.81L56.818 90l9.848 9.846v.011l.006-.005.006.005v-.011L76.523 90l6.811-6.81L90.143 90 100 99.857v-4.714L94.857 90l-10-10-1.523-1.523L81.811 80l-10 10-5.14 5.137L61.534 90 51.53 80l-1.523-1.523L48.482 80 38.48 90l-5.14 5.137L28.202 90 18.197 80Zm0 10L15.148 90 5.145 100H9.86l6.81-6.81 6.813 6.81H28.2L18.197 90Zm33.334 0L48.482 90 38.48 100h4.714l6.813-6.81 6.812 6.81h4.715L51.53 90Zm33.328 0L81.811 90l-10 10h4.712l6.811-6.81 6.809 6.81h4.714l-10-10zm-66.662 10L15.148 100h3.05zm33.334 0L48.482 100h3.047zm33.328 0L81.811 100h3.046z" fill-rule="evenodd"/></svg>